<?xml version="1.0" encoding="utf-8"?>
<!-- Generator: Adobe Illustrator 19.2.1, SVG Export Plug-In . SVG Version: 6.00 Build 0)  -->
<svg version="1.1" id="Layer_1" xmlns="http://www.w3.org/2000/svg" xmlns:xlink="http://www.w3.org/1999/xlink" x="0px" y="0px"
	 viewBox="0 0 183 239.5" style="enable-background:new 0 0 183 239.5;" xml:space="preserve">
<style type="text/css">
	.st0{clip-path:url(#SVGID_2_);fill:#FFFFFF;}
	.st1{clip-path:url(#SVGID_4_);fill:#C77F49;}
	.st2{clip-path:url(#SVGID_6_);fill:#A4693A;}
	.st3{clip-path:url(#SVGID_8_);fill:#FFFFFF;}
	.st4{clip-path:url(#SVGID_10_);fill:#3C5F36;}
	.st5{clip-path:url(#SVGID_12_);fill:#FFFFFF;}
	.st6{clip-path:url(#SVGID_14_);fill:#A4693A;}
	.st7{clip-path:url(#SVGID_16_);fill:#FFFFFF;}
	.st8{clip-path:url(#SVGID_18_);fill:none;stroke:#A4693A;stroke-width:0.867;}
	.st9{clip-path:url(#SVGID_20_);fill:#FFFFFF;}
	.st10{clip-path:url(#SVGID_22_);fill:#3C5F36;}
	.st11{clip-path:url(#SVGID_24_);fill:#3C5F36;}
	.st12{clip-path:url(#SVGID_26_);fill:#FFFFFF;}
	.st13{clip-path:url(#SVGID_28_);fill:none;stroke:#FFFFFF;stroke-width:4.900000e-02;}
	.st14{clip-path:url(#SVGID_30_);fill:#FFFFFF;}
	.st15{clip-path:url(#SVGID_32_);fill:none;stroke:#FFFFFF;stroke-width:4.900000e-02;}
	.st16{clip-path:url(#SVGID_34_);fill:#FFFFFF;}
	.st17{clip-path:url(#SVGID_36_);fill:none;stroke:#FFFFFF;stroke-width:4.900000e-02;}
	.st18{clip-path:url(#SVGID_38_);fill:#FFFFFF;}
	.st19{clip-path:url(#SVGID_40_);fill:none;stroke:#FFFFFF;stroke-width:4.900000e-02;}
	.st20{clip-path:url(#SVGID_42_);fill:#FFFFFF;}
	.st21{clip-path:url(#SVGID_44_);fill:none;stroke:#FFFFFF;stroke-width:4.900000e-02;}
	.st22{clip-path:url(#SVGID_46_);fill:#FFFFFF;}
	.st23{clip-path:url(#SVGID_48_);fill:none;stroke:#FFFFFF;stroke-width:4.900000e-02;}
	.st24{clip-path:url(#SVGID_50_);fill:#FFFFFF;}
	.st25{clip-path:url(#SVGID_52_);fill:none;stroke:#FFFFFF;stroke-width:4.900000e-02;}
	.st26{clip-path:url(#SVGID_54_);fill:#FFFFFF;}
	.st27{clip-path:url(#SVGID_56_);fill:none;stroke:#FFFFFF;stroke-width:4.900000e-02;}
	.st28{clip-path:url(#SVGID_58_);fill:#FFFFFF;}
	.st29{clip-path:url(#SVGID_60_);fill:none;stroke:#FFFFFF;stroke-width:4.900000e-02;}
	.st30{clip-path:url(#SVGID_62_);fill:#FFFFFF;}
	.st31{clip-path:url(#SVGID_64_);fill:none;stroke:#FFFFFF;stroke-width:4.900000e-02;}
	.st32{clip-path:url(#SVGID_66_);fill:#FFFFFF;}
	.st33{clip-path:url(#SVGID_68_);fill:none;stroke:#FFFFFF;stroke-width:4.900000e-02;}
	.st34{clip-path:url(#SVGID_70_);fill:#FFFFFF;}
	.st35{clip-path:url(#SVGID_72_);fill:none;stroke:#FFFFFF;stroke-width:4.900000e-02;}
	.st36{clip-path:url(#SVGID_74_);fill:#FFFFFF;}
	.st37{clip-path:url(#SVGID_76_);fill:none;stroke:#FFFFFF;stroke-width:4.900000e-02;}
	.st38{clip-path:url(#SVGID_78_);fill:#FFFFFF;}
	.st39{clip-path:url(#SVGID_80_);fill:none;stroke:#FFFFFF;stroke-width:4.900000e-02;}
	.st40{clip-path:url(#SVGID_82_);fill:#FFFFFF;}
	.st41{clip-path:url(#SVGID_84_);fill:none;stroke:#FFFFFF;stroke-width:4.900000e-02;}
	.st42{clip-path:url(#SVGID_86_);fill:#FFFFFF;}
	.st43{clip-path:url(#SVGID_88_);fill:none;stroke:#FFFFFF;stroke-width:4.900000e-02;}
	.st44{clip-path:url(#SVGID_90_);fill:#FFFFFF;}
	.st45{clip-path:url(#SVGID_92_);fill:none;stroke:#FFFFFF;stroke-width:4.900000e-02;}
	.st46{clip-path:url(#SVGID_94_);fill:#FFFFFF;}
	.st47{clip-path:url(#SVGID_96_);fill:none;stroke:#FFFFFF;stroke-width:4.900000e-02;}
	.st48{clip-path:url(#SVGID_98_);fill:#FFFFFF;}
	.st49{clip-path:url(#SVGID_100_);fill:none;stroke:#FFFFFF;stroke-width:4.900000e-02;}
</style>
<g>
	<g>
		<defs>
			<rect id="SVGID_1_" x="-8" y="-7.7" width="198.3" height="254.4"/>
		</defs>
		<clipPath id="SVGID_2_">
			<use xlink:href="#SVGID_1_"  style="overflow:visible;"/>
		</clipPath>
		<path class="st0" d="M35.8,140.7v-0.2c-0.1-0.4-0.8-0.4-0.9-0.7c-0.3-0.9-0.8-1.1-1-1.3c-0.5-0.5-1.1-0.2-1.3-0.3
			c-0.3-0.1-0.6-0.2-0.5-0.9c0-0.1,0-0.1-0.1-0.1h-0.4h-0.4l-0.4,0.1c0,0-0.9,0-2.4,0.5c-0.3,0-0.8,0.4-1.3,0.4s-1.2,0.6-1.7,0.6
			c-0.4,0-1.6,1.5-2.5,1.7c-0.5,0.1,0,0.1-3.1,1.3c-1.7,0.6-1.3,0.5-2.7,1.3c0.3,0.1,1.6,0.1,2.9,0c2-0.2,2.1-0.2,2.5-0.3
			c2.1-0.3,5.3-0.5,6.5-0.8c0.9-0.2,1.6,0.4,2.4,0.1c0.5-0.2,1-0.2,1.3-0.2c0.4,0,0.5,0,0.8,0c0,0,1.3,0,1.6-0.2
			c0.4-0.2,0.6-0.4,0.7-0.5L35.8,140.7z"/>
	</g>
	<g>
		<defs>
			<rect id="SVGID_3_" x="-8" y="-7.7" width="198.3" height="254.4"/>
		</defs>
		<clipPath id="SVGID_4_">
			<use xlink:href="#SVGID_3_"  style="overflow:visible;"/>
		</clipPath>
		<path class="st1" d="M163.3,140.1c0.1-0.2,0.2-0.4,0.3-0.7c0.3-0.7,0.5-1.7,1-2.3c0.9-1.3,1.8-2.8,3-3.6c1.1-0.8,1.3-2.1,1.9-4.4
			c0.1-3.9,0.7-4.2,0.9-4.6c0.2-0.4,0.5-1.7,1.4-3.4c0.7-1.2,1.5-3.7,1.2-4.3c-0.6-1.2-1.1-2.3-1.7-4.4c-0.9-4.9-0.2-6.6,0.8-8.1
			c1.5-2.3,2.4-3.7,4-4.4c0.7-0.3,0.6-1.7,0.5-2.6c-0.4-2.4,0.3-2.2,0.7-3.5s0.8-2.9,0.8-3.4c0-0.4-0.2-1.5-0.3-2.1
			c-0.2-1-0.3-2.5,0-3c0.4-0.8,0.8-1.7,0.8-2.4c0-0.3,0.4-0.8,0.5-1.3c0.2-0.5,0.5-1.7,0.5-2.7c0-0.3,0.4-2.2,0.6-3.6
			c0.5-2.7,0.2-4-0.1-4.8c-0.3-1.1-0.9-1.6-0.9-2c0-0.5-0.1-2-0.2-3c-0.1-0.5,2.2-3.7,2.6-4.3c0.2-0.3-0.1-2.4-0.2-2.9
			c0-0.5-0.5-2.7-0.5-3.3s0.1-1,0.1-1.6s-0.1-1.6-0.1-2.8c-0.1-2.2,0.1-4.4,0.1-5c0-0.5-0.8-0.5-2.3-1.3s-4.7-3.9-5.2-4.2
			s-3.1-0.7-4.5-0.7s-4.3,0.7-5.6,0.9s-2.9-0.4-3.6-0.6c-0.8-0.2-2.2-0.6-2.8-0.6c-1.8,0.2-4.6,0.3-5.8,0c-1.4-0.3-2.7-0.6-3.4-1.1
			c-0.6-0.4-0.8-0.3-1.6-1c-0.6-0.6-0.7-0.9-1.2-1s-4.6-0.4-5.4-1.2c-0.8-0.8-1.8-2.1-2.4-5c-0.6-2.8,0.4-4.8,1.5-5.3
			c1.6-0.8,3.9-2.2,5.1-2.3c0.5-0.1-0.7-2.2-1.3-4.2c-0.3-0.8-1.4-0.6-4-3.5c-1.2-1.3-3.2-3.9-3.8-4.8c-0.5-0.9,0.1-1.4-0.5-1.4
			c-0.7-0.1-3.1,0-6.8-0.6c-3.7-0.7-6.2-1.7-7.3-2.1c-1.1-0.4-3.8-1.2-4.6-1.5c-0.8-0.3-2.5-1-3.9-1.5c-1.5-0.5-2.1-1.7-2.8-1.7
			c-0.7,0-3.5,1.9-6.8,2.4c-3.3,0.5-4.4-0.4-6.2-0.6c-1.8-0.3-3.5-0.6-5.7-0.8s-8.5,1-9.6,1.1s-2.7,0.9-4,0.9
			c-0.9,0-5.7,1.4-6.6,1.6c-0.9,0.2-2.1-0.3-2.7-0.1c-0.9,0.3-2.4,0.6-2.9,0.7c-0.4,0.1-6.8,2.3-8,2.5c-1.3,0.3-3.1,0.9-4.6,1.5
			c-1,0.4-1.6,1.1-2.4,1.6c-2.8,1.9-3.5,2-4.8,2.4c-0.9,0.3-1.3,0.6-3.2,0.7s-2.4,0.5-2.4,0.8c0,1.3-0.5,3.9,0,4.2
			c1,0.6,3.6,4.8,3.7,7.4c0.1,2.9-0.2,4.9-0.4,5.8c-0.1,0.7-0.2,1.2-0.6,1.7c-0.4,0.4-2.7,1.2-4.1,1.3c-1.4,0.1-2.1,0.1-7.1-1.1
			c-3.9-1-4.3-1.4-4.7-2c-0.4-0.5-1.4-1.1-2.1-1.4c-0.7-0.3-1.4-0.5-2.1-1.2c-0.6-0.6-3.7,0.9-7.9,1.2c-0.8,0.1-2.2,2.6-4.7,3.9
			c-2,1-3,1.4-3.7,1.9c-1.8,1.3-4,1.5-3.8,2.1c0.4,1-0.4,1.6-0.1,4.1c0.4,4.3-0.6,6.5-0.6,8.7c0,1,1.2,2.3,1.7,2.7s1.5,2,1.7,3
			c0.3,1.1-0.2,4.7-0.7,7.6c-0.6,3.1-0.9,6.1-0.8,7.2c0.1,0.7,0.9,2.2,1.4,3c0.5,1,1.6,4.6,1.6,6.4c0.1,1.7-0.4,3.7-0.4,4.1
			c0,0.3,0.6,1.7,1.1,2.4c0.6,0.9,2,3.8,2.4,4.5c0.5,1,0.6,2.2,0.6,2.2s-0.1,1.5-0.2,2.3c-0.1,0.9-0.4,3.9-0.7,7.8
			c-0.3,3.8-0.3,7,0.1,7.3c0.4,0.4,1.2,1.1,1.5,1.7c0.3,0.5,2.7,4.7,3,5.3s0.9,2.2,1.1,3.5c0.2,1.2,0.6,3.5,0.7,4.2
			c0.1,0.8,1.1,5.9,1.3,6.7c0.2,1,0.6,3.9,0.7,5.1c0.1,1.3,0.3,3.5,0.3,3.9l0,0c1.4-0.8,1-0.7,2.7-1.3c3.1-1.2,2.6-1.2,3.1-1.3
			c0.9-0.1,2.1-1.7,2.5-1.7c0.6,0,1.2-0.6,1.7-0.6s1-0.4,1.3-0.4c1.5-0.5,2.4-0.5,2.4-0.5l2.5-0.5c1-0.2,26.4-9.2,31.1-11
			c4.7-1.9,0.4,1.4,6.6-0.9c6.1-2.2,10-4.4,10-4.4c1.6-0.5,9.1-4.4,9.1-4.4s1.7-0.9,3.1-0.8c1.8,0.1,3,0,3.5-0.1s0.9-0.3,2.4-0.2
			c1.5,0.1,2.1,0.2,3.4,0c1.1-0.2,1.3-1,1.9-1.2c0.5-0.1,1.1-0.5,1.4-0.8c0.7-0.9,1.5-0.7,1.9-1.3c0.6-1,1.3-0.7,3-2
			c0.3-0.3,2,0.1,2.6-0.2c0.6-0.3,2.9-2.2,3.5-2.5c0.5-0.3,0.9-1.1,1.5-0.9c1.4,0.3,1.7-0.1,2.4,0.5c1,1,3.4,2.6,3.5,2.9
			c0.4,1.2,2.2,1.2,2.3,2.8c0,0.8,0.8,0.7,0.7,1.9c0,0.3,2.3-0.1,3.3,0.8c0.7,0.6,3.2,3,3.6,3.2c0.7,0.4,1.8,1.4,2.3,1.6
			c1,0.5,5.1,2.8,6.3,4.4c0.6,0.7,1.6,0.5,2.2,1c1.6,1.1,5.8,3.7,6.3,4.7c0.5,0.9,4.3,3.5,4.4,4.1c0.2,0.7,1.9,1.6,2,2.2
			c0.1,0.6,2.5,2.2,3.3,2.8c1.1,0.8,0.8,0.5,2,1.8L163.3,140.1z"/>
	</g>
	<g>
		<defs>
			<rect id="SVGID_5_" x="-8" y="-7.7" width="198.3" height="254.4"/>
		</defs>
		<clipPath id="SVGID_6_">
			<use xlink:href="#SVGID_5_"  style="overflow:visible;"/>
		</clipPath>
		<path class="st2" d="M153.3,159.4c0.4-0.8,1-1.7,1.4-2.1c1.3-1.4,1.1-2.2,3.2-3.8c0.8-0.5,0.5-2.2,0.5-2.2s0-0.6,0.4-1.6
			s2-2.9,2.9-3.8c0.4-0.4,0.7-1.6,0.7-2.2c0-0.5-0.1-1.6,0.5-2.8v-0.2c-1.2-1.3-0.8-0.9-1.9-1.7c-0.9-0.6-3.3-2.3-3.3-2.8
			c-0.1-0.6-1.8-1.5-2-2.2c-0.1-0.5-3.9-3.2-4.4-4.1c-0.5-1-4.8-3.6-6.3-4.7c-0.6-0.4-1.6-0.2-2.2-1c-1.2-1.6-5.3-3.9-6.3-4.4
			c-0.5-0.2-1.6-1.2-2.3-1.6c-0.4-0.2-2.9-2.6-3.6-3.2c-1-0.8-3.3-0.4-3.3-0.8c0.1-1.2-0.7-1.1-0.7-1.9c-0.1-1.6-1.9-1.6-2.3-2.8
			c-0.1-0.3-2.5-1.9-3.5-2.9c-0.7-0.7-1-0.2-2.4-0.5c-0.6-0.1-1,0.6-1.5,0.9s-2.9,2.2-3.5,2.5s-2.2-0.1-2.6,0.2c-1.7,1.3-2.4,1-3,2
			c-0.4,0.6-1.1,0.4-1.9,1.3c-0.2,0.3-0.9,0.7-1.4,0.8c-0.6,0.2-0.8,1-1.9,1.2c-1.3,0.2-1.9,0-3.4,0c-1.5-0.1-1.9,0.1-2.4,0.2
			s-1.8,0.2-3.5,0.1c-1.5-0.1-3.1,0.8-3.1,0.8s-7.6,3.9-9.1,4.4l-0.7,0.3c0,0.5-0.5,1.6-1,1.9c-0.5,0.3-1,0.1-1.3,0.5
			c-0.2,0.4,0.3,0.7,0.5,0.9c0.1,0.2,0.4,1,0,1.3c-0.5,0.4-0.8,1-1,1.3c-0.3,0.4-1.4,0.9-1.1,1.5c0.2,0.5,0.4,0.9,0.5,1.4
			c0.2,1-0.3,1.5-0.4,1.9c0,0.4,0.4,0.4,0.1,0.9c-0.5,0.7-0.9,0.9-0.7,1.5c0.2,0.5-0.8,0.3-1,0.3c-0.3,0.1-0.5,0.4-0.6,0.9
			s0.1,1.2-0.8,1.2s-2.1,0-2.4,0.3s0.2,0.7-0.2,1c-0.4,0.3-0.7,0-1,0c-0.4,0-0.8,0.4-0.8,0.4s-0.3,0.4-0.4,0.7s-0.6,0.4-0.7,0.7
			c0,0.3,0.3,0.5-0.1,0.9c-0.2,0.3-0.6,0.5-1,0.7s-0.6-0.2-0.8,0.4c-0.1,0.4,0,0.6-0.2,0.9c-0.3,0.4-1,0.5-1.4,0.7
			c-1.5,0.6-3.2,0.9-3.6,0.9c-0.3,0-2.3,0-2.4-0.7c-0.1-1.2-1.1-1.3-1.2-1.7c-0.3-0.8-1.5-1.2-1.5-1.8c0-0.8-3-0.6-3.1,0
			c-0.1,0.5,0,3.2,0,3.8c0,1.1,0,2.4,0.2,7.7c0.1,3.6,0,4.3,0.4,7.9c0.3,2.2,0.7,3.2,1,3.7l0.9-0.2c-0.1,0,1.2-0.2,0.6-0.8
			c0.8-0.1,0.9-0.8-0.5-0.8c0.9-0.2,0.9-0.7,0.4-0.8c0.8-0.2,1.1-0.5,0.7-0.9c0.7,0.1,0.4-0.5,0.3-0.7c0.5,0.1,0.8-0.1,0.7-0.4
			c0.8,0.5,1.4,0,0.5-0.4c0.6-0.1,0.4-0.4-0.5-0.5c0.4,0.1,1.1-0.2,0.9-0.6c0.5,0.4,1.1-0.2,0.3-0.9c0.5-0.1,0.8-1,0.8-1.2
			c0,0.6-0.1,1.6,0.5,1.4c-0.4,0.3-0.3,0.7,0.8,0.7c-0.9,0.1-1.2,0.9,0,1c-0.5,0.4,0.8,0.3,1.4,0.5c-0.8,0.1-0.9,0.3-0.6,0.4
			c-0.8,0.3,0.1,0.6,1.3,0.8c-1.2,0.1-1.5,0.8-0.9,1.2c0.3,0.2,0.7,0.1,1.1,0c0.3-0.1,0.5-0.3,0.9-0.4c0.3-0.1,0.6-0.4-0.5-0.8
			c0.5,0.1,1.3,0,1-0.2c1.2-0.1,1.2-0.8-0.5-1.3c0.5,0.1,2.4-0.1,1.4-0.6c0.4-0.1,0.1-0.8-0.6-0.8c0.4-0.2,0.5-0.9-0.2-1.1
			c0.7,0,1.4-0.1,0.8-0.5c0.4,0,0.8-0.2,0.6-0.4c0.9,0.1,0.7-0.4,0.3-0.6c0.2-0.2,0.9-0.4,0.2-0.9c0.6,0.1,1.3,0,1.1-0.3
			c0.7,0,1.2-0.8,0-0.7c0.2-0.2,0.3-0.5-0.1-0.7c0.9,0,1.3-1.2,1-1.5c0.5,0,0.5-1.4,0.4-1.8c0.3,0.8,0.5,1.3,0.9,1.3
			c-0.5,0.3,0,0.9,0.6,1c-0.5,0.2,0.4,0.8,0.9,0.7c-0.8,0.4-0.9,1.2,1,1.8c-0.8-0.1-0.3,0.6,0,0.9c-0.3-0.2-1.3-0.2-1,0.2
			c-0.4,0.1-0.6,0.8,0.6,0.5c-0.1,0.3,0.5,0.6,1.3,0.7c-0.5,0.5-0.3,0.7,0.4,0.8c-0.2,0.2-0.5,0.4-0.1,0.7c-0.4,0.3-1,1,1,1.1
			c-0.9,0.4-0.1,0.6,0.4,0.8c-1.7,0-1.1,1.3,0,1.3c-0.7,0.3-0.2,0.8,0.5,1.1c-0.4,0.4,1.1,0.6,0.7-0.2c0.9-0.1,1.3-0.7,0.7-0.9
			c1.2-0.3,0.5-1.7,0.1-1.7c0.5-0.1,1.2-0.6,0.7-1c0.8,0.2,1.8-0.6-0.4-0.8c1.7-0.2,1.3-0.9,0.5-1.2c0.2-0.1,2.3,0.2,1.4-0.6
			c0.5-0.2,0-0.5-0.7-0.5c0.5-0.1,1.1-0.7,0.5-1c0.3,0,0.6,0,0.3-0.7c0.3,0.3,1.5,0.3,1.2-0.3c0.5-0.2,0.1-0.5-0.2-0.8
			c0.7-0.3,0.3-1.3,0-1.5c3.7-0.2,0.3-1.5,0-1.5c0.9,0,1.7-0.2,1.3-0.6c1.9,0.4,0.9-1.2,0.3-1.4c0.2,0,0.9-0.5,0.5-0.9
			c0.9,0.4,1.4,0.3,0.6-0.6c0.4-0.2,0.1-0.6-0.2-0.7c0.8,0.1,0.8-1.7,0.8-1.7s0.6,1.6,1.4,1.8c-0.7,0.3-0.6,1.5,0,1.5
			c-0.2,0.6,0.8,0.5,1.2,0.6c-1.4,0-1.2,0.9,0,1c-0.6,0.4,0.1,0.8,0.8,0.6c-0.8,0.3-0.7,0.8,0.2,1.4c-0.4,0.2-0.7,0.6-0.3,1.1
			c-0.6,0,0,0.8,1.1,1c-1.5,0-1.8,0.5,0,1.2c-0.3,0.1-0.2,0.5,0.5,0.7c-1,0.5-1,1.3,0.8,1.3c-0.7,0.2-0.1,0.4,0.5,0.8
			c-3.1,0.3-1.5,1.5-0.3,1.3c-1.1,0.5,0.6,0.4,1.3,0.7c-1,0.2-2.4,0.3-1.8,0.6c-0.6,0.2-0.7,1,1.8,0.9c-0.4,0.3,0.4,1.1,0.8,1.3
			c-2.9,0.4-1.6,0.8-0.1,1.2c-0.5,0.1-0.8,0.9,0.8,0.7c-1,0.3-1.8,0.7-1,1.2c0.8,0.4,0.7,0.5,9.7,1.4c7.1,0.7,8.3,0.8,10,1
			c1.9,0.3,0.5-0.9-0.1-1.4c2.9,0.5,1.5-0.9,1-1.3c0.4,0,1.3-0.2,0.6-0.7c1.6,0.2,1.1-0.8,0.8-1.2c2-0.5,1-1.1,0.3-1.4
			c0.4-0.1,0.7-0.3,0.4-0.7c1.3,0.5,0.9-0.2,0.4-0.5c0.5,0.1,1.3-0.8,0.5-1.2c0.9-0.2,0.6-0.6,0.4-0.7c2.2-0.1-0.3-1.1,0.3-0.9
			c1-0.3,1.7-1.4,0.9-1.6c0.8-0.1,1.3-0.8,0.5-1.2c0.5-0.2,0.5-0.9,0.3-1.3c1.4,0.3,1-1,0.6-1.1c1.1,0.2,1.2-2.2,1.2-2.2
			s0.1,1.6,1.1,1.7c-0.6,0.3,0.5,1.1,1,1.2c-0.9,0-1,0.6-0.6,0.8c-0.8,0.1,0.1,1,0.7,1.2c-1.4,0.3-0.2,0.8,0.1,1.1
			c-0.6,0.1-0.6,0.6,0.1,0.7c-0.7,0.3-0.1,1.1,0.2,1.2c0.4,0.1,0.8,0.1,1.1-0.3c0.6-0.6-0.1-1-0.5-1.2c1.3-0.2,1.3-1.3,0.8-1.5
			c1-0.1,0.7-1.3,0.3-1.5c0.8,0,0.8-1,0.9-1.6c0.2,0.8,0.2,1.5,0.7,1.7c-0.6,0.8,0.1,1.5,0.7,1.4c-0.4,0.2,0.1,0.9,0.5,1.1
			c-1.3,0.3,0.3,1.3,0.7,1.3c-0.7,0.7,0.5,1.2,0.5,1.2s-0.7,0.7-0.5,1.4s1.3,0.5,1.6,0.3c0.7-0.6-0.1-1.3-0.4-1.5
			c1.2-0.1,0.9-1.3,0.3-1.5c1.1,0,2.6-0.4,0.9-0.8c-0.2,0,1.3-0.5,0.3-0.8c1.4,0.1,0.5-1.3,0.5-1.3s1.5-0.2,0.7-0.7
			c0.8,0.2,0.9-0.6,0.9-0.6s-0.1,1,1.1,1.3c-0.7,0.4,0.2,0.4,0.4,0.5c-1.3,0.4-0.3,0.9,0.3,1c-0.7,0.2-0.6,0.7-0.1,1
			c-0.6,0.1,0.1,0.6,0.6,0.7c-0.9,0.7-0.5,1.4,0.2,1.5c-0.8,1.2,0.5,1.1,0.9,0.9c0.3-0.2,0.5-0.5,0.4-0.7s-0.3-0.2-0.6-0.3
			c1.2-0.3,0.6-1.1,0.2-1.3c1.6-0.1,1.2-1.1,0.8-1.4c0.4,0,0.8-0.2,0.6-0.5c0.4-0.1,0.2-0.5,0.4-1c0.1,0.7,0.2,1.2,0.6,1.4
			c-0.3,0.3,0.1,0.5,0.3,0.6c-1.1-0.2-0.3,0.7,0.1,0.7c-0.5,0.4-0.1,0.6,0.3,0.6c-0.3,0.3-0.1,0.5,0.2,0.6c-0.4,0.3,0.1,1,0.9,0.8
			c1.2-0.4,0-1.1,0-1.1c0.7,0,1.2-0.2,0.8-0.5c1.2,0.4,1.9-0.7,0.9-1.1c0.4-0.1,0.9-1-0.2-1.3c1.2,0.2,1.9-0.1,1.2-1
			c0.7,0.1,0.6-0.5,0.7-0.9c0.1,0.7,0.4,0.8,0.7,0.8c-0.4,0.5,0,0.7,0.2,0.9c-0.1,0.3,0.2,0.7,0.7,0.6c-0.3,0.2,0,0.5,0.3,0.5
			c-1.3,0.1-0.9,0.8-0.3,0.8c-0.1,0.4,0,0.6,0.7,0.5c-0.5,0.6,0.4,0.7,0.7,0.7c-1.1,0-0.9,1.3-0.2,1c-0.1,0.7,1.1,0.2,1.5,0.4
			c-0.8,0.8-0.6,1.4,1.1,1.1c-0.8,1.1,0.6,0.8,0.8,0.4c1,0.7,1.4-0.3,0.7-0.6c0.5-0.1,0.3-0.5-0.4-0.7c0.9,0,0.7-0.3,0.5-0.5
			c0.7,0.2,1-0.2,0.7-0.7c0.8,0.1,0.8-0.7,0.8-0.7s0.1,0.5,0.7,0.4c-0.3,0.6,0.2,0.8,0.9,0.6c-0.3,0.6,0,0.8,0.5,0.8
			c0,0.2,0,0.6,0.3,0.8L153.3,159.4z"/>
	</g>
	<g>
		<defs>
			<rect id="SVGID_7_" x="-8" y="-7.7" width="198.3" height="254.4"/>
		</defs>
		<clipPath id="SVGID_8_">
			<use xlink:href="#SVGID_7_"  style="overflow:visible;"/>
		</clipPath>
		<path class="st3" d="M98.4,117.5c-1.3,0-2.2,0.5-3.9,1.3c-0.8,0.4-5.6,3.9-8,4.8c-1.7,0.7-2.3,2.5-2.3,2.9c0,0.6,1.9,0.1,3.5-0.3
			c2.1-0.6,2.2-0.9,2.3-1.3c0.1-0.3,1.3-1,2.3-2.1c0.8-0.9-0.1-1.1,0.6-1.6c0.8-0.5,2.5-2.2,3.2-2.5
			C96.8,118.5,98.7,117.5,98.4,117.5 M104.7,117.7c-0.7,0.2-3,1.6-3.9,2c-0.8,0.4-1.4,0.9-1.4,1.1s0.2,0.3,0.9,0.3
			c0.7,0.1,0.8,0,1.4-0.5s1.6-1.3,2.1-1.8C104.4,118.4,105,117.6,104.7,117.7 M99.3,122.5c-0.4,0-0.5,0.1-1,0.5
			c-0.5,0.3-0.7,0.4-0.6,0.7c0.2,0.2,0.4,0.4,0.7,0.1c0.3-0.3,0.7-0.9,1-1C99.6,122.7,99.6,122.5,99.3,122.5 M129.4,124.6
			c0.8,1.6,2.2,1.9,4.5,3c0.6,0.3-3.6-3.1-4.7-4.4c-1-1-2.2-2.8-3-2.9C125.2,120.2,128.9,123.7,129.4,124.6 M131,121.9
			c0.2,0.4,1.6,2.1,2.1,2.6s1.1,1.1,1.4,1.6c0.3,0.5,0.7,0.2,0.7-0.1c0.1-0.3-1.1-1.4-0.7-1.4c0.4,0,0.8,1,1.3,1.5s1,1.2,1.3,1.7
			c0.2,0.5,0.7,1,1.4,1.6c0.7,0.7,0.8,1.2,0.8,1.2s0.1-0.6,0-1.3s-1.2-1.2-2-1.9c-0.5-0.5-0.3-1.1-0.8-1.7c-0.5-0.6-2.1-3.3-2.5-3.6
			c-0.4-0.4-0.7,0.4-1,0.8c-0.3,0.4-1-1.3-1.4-1.9c-0.4-0.5-1-1.9-1.4-1.6C130,119.6,130.9,121.5,131,121.9 M143.9,129.3
			c0.2,0.2,1.1,1.3,1.4,1.6c0.4,0.3,0.8,0.7,1,0.3s-0.7-0.6-1.3-1.3c-0.7-0.7-0.3-1-1-1.3C143.3,128.3,143.7,129,143.9,129.3
			 M119.6,118.6c0.1,0.4,0.2,0.5,0.2,0.8s-0.4,0.2-0.4,0.5s-0.1,1,0.5,1.1c0.6,0.1,0.7,0.2,1.2,0.1c0.5-0.1,1.4,0.2,1.7-0.1
			c0.2-0.4-0.2-0.8-0.6-1c-0.4-0.2-0.4-0.8-0.6-1.3c-0.2-0.5-0.9-0.7-1.7-0.7C119.5,117.9,119.5,118.2,119.6,118.6 M106.1,119.3
			c-0.8,0.2-3,2-3.7,2.9c-0.4,0.6-0.2,1.2,0,1.3s0.3,0.1,0.5,0c0.2-0.2,0.4-1,0.9-1.3s1.1-1.3,1.5-1.7
			C105.7,120.3,107,119.1,106.1,119.3 M162.7,141c-0.3,0-0.8-0.1-1.4-0.3c-1.4-0.4-1.9-1-5.2-1.3c-0.7-0.1-2.6-2.4-5.6-3.5
			c-0.8-0.3-6-3.4-6.7-3.5c-2.2-0.3-2.8-1.1-2.5-0.4c0.2,0.4,1,0.9,1.1,2.3c0,0.4,0.6,2,0.6,2c-0.1,0.5-7.3-1.8-9-4.5
			c-2.3-3.6-2.8-4.5-4-5.3c-1.3-0.8-2.4-1.6-2.9-2.7c-0.1-0.2,0-0.7-0.5-0.8c-0.7,0-1.4,0.1-1.8-0.8c-0.3-0.5-0.8,0.3-1.2,0.6
			c-0.3,0.2-0.9,0.1-0.8,0.6c0.1,0.4-0.5,0.6-0.2,0.9c1.2,1.2,0.6,2.2,1.2,2.4c0.2,0.1,0.5,0.8,0.4,1.3c-0.1,1.1,0.6,1.3,0.6,1.9
			c0,0.4,0.3,1.5,0,1.4c-0.6-0.1-1.4-0.7-2-1.3c-0.6-0.5-1.1-0.6-1.2-1c-0.1-0.3-0.6-0.6-1.3-1.8c-0.2-0.4,1,1.7,1.4,3.1
			c0.3,1,0.8,2.1,1.3,2.8s0,1.8,0,1.8c-0.2,0-1.6-0.8-1.8-1.2c-0.6-1.1-2.4-1.3-3.8-3.9c-0.5-1,0-2.9,0-3.5c0-0.8-0.9-1.3-1.7-2.6
			c-0.7-1.1,0.2-3.9,0-4.9c-0.1-0.7,0.2-1.9-0.1-1.9c-0.6,0-2.4,1.8-4.6,2.9c-0.4,0.2-1.2,0.9-1.5,1c-1.8,0.6-2.5,1.4-3.4,3.1
			c-1,2.1-1.7,3.2-2.1,3.9c-0.4,0.8,0.2,0.9-0.5,1.5c-0.4,0.3-3.9,3.8-4.4,4.3c-1.8,1.8-2,1.1-1.9,0.9c0.2-0.9,2.3-3.3,3.6-5.4
			c0.8-1.3-0.8,0-1.4-0.3c-1.1-0.6,0.1-1.9,0.2-2.1c0.5-0.5,0.1-0.8,0.4-1.2c0.7-0.8,0.3-0.9,0.5-1.2c0.5-0.4,0.2-0.4,0-0.3
			c-0.7,0.4-2.5,1.4-2.9,1.8c-0.6,0.5-5.1,3.3-4.1,1.9c0.2-0.3,0.6-0.7,1.1-1.1c0.5-0.5,0.8-1.2,0.9-1.6c0-0.4,0-0.8,0.2-1
			c2.3-2-0.3-0.4-0.6-0.2c-0.8,0.8-3.1,2.2-4.2,2.8c-0.6,0.4-2.5,1.2-2.7,1.7c-0.2,0.5-0.4,0.9-0.8,0.7c-0.9-0.4-1.3-0.1-2.1,0.5
			c-0.7,0.6-1.1-0.1-1.5,0c-1,0.2-1.7-0.3-2.1-0.1c-0.8,0.2-4,2.5-4.9,2.2l-0.5,0.1l-0.2-0.3v-0.1c0-0.1,0.6-1,0.4-1.9
			c-0.1-0.5-0.2-0.9-0.5-1.4c-0.2-0.5,0.9-1.1,1.1-1.5c0.3-0.4,0.5-1,1-1.4c0.4-0.3,0.2-1,0-1.2c-0.1-0.2-0.7-0.6-0.5-1
			s0.9-0.2,1.3-0.5c0.5-0.3,0.9-1.4,1-1.9l0.7-0.3c1.6-0.5,9.1-4.4,9.1-4.4s1.7-0.9,3.1-0.8c1.8,0.1,3,0,3.5-0.1s0.9-0.3,2.4-0.2
			c1.5,0,2.1,0.2,3.4,0c1.1-0.2,1.3-1,1.9-1.2c0.5-0.1,1.1-0.5,1.4-0.8c0.8-0.9,1.5-0.7,1.9-1.3c0.6-1,1.3-0.7,3-2
			c0.3-0.3,2,0.1,2.6-0.2c0.6-0.3,2.9-2.1,3.5-2.5c0.5-0.3,0.9-1.1,1.5-0.9c1.4,0.3,1.7-0.1,2.4,0.5c1,1,3.4,2.6,3.5,2.9
			c0.4,1.2,2.2,1.2,2.3,2.8c0,0.8,0.8,0.7,0.7,1.9c0,0.3,2.3-0.1,3.3,0.8c0.7,0.6,3.2,3,3.6,3.2c0.7,0.4,1.8,1.4,2.3,1.6
			c1,0.5,5.1,2.8,6.3,4.4c0.6,0.7,1.6,0.5,2.2,1c1.6,1.1,5.8,3.7,6.3,4.7c0.5,0.9,4.3,3.5,4.4,4.1c0.2,0.7,1.9,1.6,2,2.2
			c0.1,0.6,2.5,2.2,3.3,2.8c1,0.7,1.2,0.9,2,1.8L162.7,141z"/>
	</g>
	<g>
		<defs>
			<rect id="SVGID_9_" x="-8" y="-7.7" width="198.3" height="254.4"/>
		</defs>
		<clipPath id="SVGID_10_">
			<use xlink:href="#SVGID_9_"  style="overflow:visible;"/>
		</clipPath>
		<path class="st4" d="M145.4,170.7c-0.1,0.3-0.3,0.5-0.4,0.8c-0.3,0.9-1.1,5.8-1.2,6.9c-0.1,1.1-0.4,1.7-1,2.3s-2.4,2-2.5,2.8
			s0.2,3.5-0.3,4c-0.7,0.6-3.1,3.8-4.1,4.7c-0.9,1-2.5,2.7-2.5,2.7l-0.9,1.3c0.4,0.6,1,2.4-0.2,3.6c-1.1,1.1-3.3,4.1-6.3,6.2
			c-1.6,1.1-3.4,2.3-3.8,2.8c-0.6,0.7-0.2,2.1-0.7,2.4c-0.8,0.4-2.2,2.1-2.8,2.3c-0.8,0.4-0.7,0.8-0.9,1.5c-0.2,0.7-0.7,0.9-0.9,1.5
			c-0.3,1.1-2,3.6-3.1,5.4c-0.7,1.1-1.8,1.4-3,2.2c-2.2,1.5-1.8,0.8-5.5,4.3c-1.3,0.9-2.9,2.8-3.5,3.2c-0.5,0.5-2.1,2.6-3.1,3.6
			s-2,1.6-6.7,2.5c-1.1,0.2-2.1-0.5-4-0.5c-0.9,0-3.4-1.4-4.3-1.9c-0.7-0.4-1.9-1-2.4-1.4c-2.1-1.4-3.1-1.8-3.8-2.1
			c-0.7-0.3-1.5-0.7-2.1-1.1c-0.8-0.6-2-1.9-2.5-2.4c-2-1.9-5.7-4.2-6.2-4.8s-1.4-1.9-2.1-2.8c-0.7-0.8-1-0.6-1.4-1.2
			c-0.2-0.3-0.1-2.9-0.2-3.4s-0.2-1.1-2.1-2.2c-1.8-1-2.7-1.1-3.2-2c-0.7-1-3.2-3.8-3.3-4.3c-0.1-0.7-0.4-2.3-0.5-2.8
			c-0.1-0.6-0.3-1.5-1.6-2.3c-0.4-0.3-0.4-0.7-0.6-1c-0.2-0.3-0.8-0.5-1.1-0.5c-0.3-0.1-0.3-0.7-0.5-1.5c-0.5-2.6-1.3-3.5-2.3-4.6
			s-2.1-2.1-2.5-2.3c-0.8-0.3-1.7-1.2-2.1-1.6c-0.3-0.4-0.7-0.8-0.7-1.4c0-0.6-0.7-2.9-1.2-3.8c-0.7-1.3-1.3-3-2.8-5
			c-1.8-2.3-2.7-2.8-3.3-3.4c-0.4-0.4-0.4-1.4-0.3-1.9c0.1-0.7-0.4-1.3-1.2-2.2s-3-3-3.3-3.5c-0.3-0.3-0.9-0.7-1.5-0.7
			c-0.5-0.1-1-1.2-1.3-1.5c-0.3-0.2-0.4-0.7-0.4-1.3c0-0.1-0.1-0.2-0.2-0.5c-0.1-0.2-0.2-0.5-0.3-0.7l-0.1-0.1
			c0.2-0.1,0.4-0.2,0.5-0.2c0.4-0.2,0.3-0.3-0.1-0.4c0.3-0.1,0.8-0.4,0.4-0.6c0.4-0.2,0.8-0.7,0.4-0.8c0.3-0.2,0.5-1.2,0.5-1.2
			s0.1,0.6,0.5,1c-0.4,0,0.1,0.2,0.2,0.4c-0.2,0.1,0.1,0.3,0.3,0.4c-0.3,0.1-0.2,0.3,0.2,0.4c-0.2,0.2,0.1,0.3,0.4,0.1
			c-0.1,0.2-0.3,0.3-0.3,0.3s1.7-0.2,2.6-0.8c0.9-0.6,0.5-0.8-0.1-1.1c0.6-0.2,2.3-0.7,1.7-1.2c0.4-0.4-0.1-0.6-0.7-0.7
			c2-0.4,2.1-0.8,1.9-0.9c1.1-0.5-0.2-0.8-0.6-1.1c1.3,0.2,1-0.2,0.9-0.5c1.1,0.5,1.2-0.6,0.7-0.9c0.5-0.1,0.5-0.7-0.1-1.1
			c1.1,0.2,1.7,0,0.9-0.7c0.5-0.2,0.6-0.5,0.4-0.7c0.6-0.4,0.2-0.7-0.1-0.9c0.6-0.3,0.5-1,0.2-1.1c0.5-0.6,0.7-2,0.7-2
			s0,1.1,0.8,1.6c-0.3,0.3-0.1,0.8,0.3,0.9c-0.4,0.7-0.1,0.9,0.6,1c-0.3,0.4-0.5,0.7,0.5,0.8c-0.9,0.6-0.5,0.9,0.3,0.9
			c-0.9,0.3-0.3,0.9,0.6,0.7c-0.7,0.5-0.7,1.1,0.3,0.9c-0.9,0.4-1,1.1,0.4,1.1c-0.5,0-0.9,1.3,0.9,1.7c0.2-1.5,0.7-11.7,0.8-13.6
			c0.1-2.1,0-3.4,0-3.4s-0.1-0.1-1,0s-1.2,0.4-2.5-0.1c-1.3-0.4-1.5-0.1-2.5-0.1c-0.8,0.1-1.3-0.1-2.2,0.3c-1,0.4-2-0.1-2.5-0.5
			c-0.4-0.4,0-1.1,0.7-1.1c1.6,0,2-0.5,2.1-0.8c0.4-0.9-0.6-0.7-0.8-1.1c-0.3-0.9-0.8-1.1-1-1.3c-0.5-0.5-1.1-0.2-1.3-0.3
			c-0.3-0.1-0.6-0.2-0.5-0.9c0-0.2-0.1,0-0.7-0.1c-0.6-0.1-0.2-0.1-0.8-0.2c-0.5-0.1-0.2-0.6-0.8-0.7c-0.5,0-0.6,0.3-1.3,0.3
			c-0.3,0-1.5-0.1-1.9-0.3s-1,0-1.3-0.2c-0.4-0.3-0.2-0.8-0.3-1.4c-0.1-0.3,0.5-0.9,0.8-1.3c0.3-0.4,0.8-0.6,2-0.4
			c0.6,0.1,1.6,0.2,2.4,0.1c1.3-0.1,0.7,0.4,1.6,0.4c0.9,0,2.1-0.6,2.2-1.1c0.1-0.5,0.1-1-0.2-1.2c-0.4-0.2-0.8-0.2-1.2-0.6
			c-0.4-0.4-0.2-0.9-0.2-1.3c0-0.4,0.6-0.9,1.1-1.2c1.1-0.7,0.5-1.1,0.8-1.2c0.3-0.1,0.8-0.3,1.5-0.3c1.1-0.1,1.6,0.4,2.5,0.4
			s1.9,0.3,2.7,0.3c1.9-0.1,0.1-1,1.2-0.9c0.5,0,1.3-0.1,1.9-0.4c0.9-0.4,0.9-1.3,1.4-1.7c0.3-0.2,0.2-1.2,0.2-1.6
			c0-0.4-0.5-1.1-1.1-1.2c-0.6-0.1-1.2,0-2-0.1c-0.7-0.1-0.9,0-1.3,0.1c-0.4,0.1-0.4,0.2-0.8,0.4c-0.4,0.3-0.7,0.3-1.1,0.7
			c-0.4,0.4-0.1,1-0.6,1.2c-1,0.6-0.9,0-1.4,0c-0.5,0.1-0.9,0-1.3-0.1c-0.5-0.1-1.3-0.3-1.3-0.7c-0.1-0.4-0.3-0.6-0.6-0.8
			c-0.3-0.1-0.3-0.4-0.7-0.4s-0.5,0-1,0.4s-0.2,0.8-0.5,1.1c-0.4,0.6-0.3,1.1-0.7,1.1c-0.5,0,0-0.5-0.8-0.3c-0.5,0.1-0.4,0.5-1,0.7
			c-0.5,0.1-0.6,0.3-1.3,0.6c-0.8,0.4-1-0.1-1.6-0.2c-0.6-0.2-0.9-0.6-1.6-0.5c-0.6,0-0.2-1,0.4-1.7c0.5-0.6,1.3-0.3,1.7-0.8
			c1-1.2,0.9-0.5,1.2-1.4c0.2-0.7,0.9-0.3,0.8-1c-0.1-0.7-0.6-0.3-0.7-1.1c-0.1-0.5,0.1-1.1,0.8-1.2s1.6,0.3,2.4-0.3
			c0.6-0.4,1.3-0.6,1.7-1c0.3-0.4,0.2-1,0.4-1.1c0.2-0.2,0.9,0.1,0.7-0.9c-0.1-0.7-1-0.2-1.5-0.7c-0.4-0.3-0.3-0.6-0.6-0.6
			c-1-0.2-0.5,0.5-1.8-0.3c-0.6-0.3-0.1-0.5-0.6-0.8s-0.9,0-1.8-0.4c-0.8-0.4-1.6,0.3-1.7-0.3c-0.1-0.4-0.9-0.7-1-0.9
			c-0.1-0.1-0.3-0.5-0.2-0.9c0.1-0.5-0.1-1,0.4-1.2c0.4-0.2,0.7-0.6,1-0.9c0.5-0.5,0.2-1.2,0.5-1.5s1-1.7-0.7-0.7
			c-0.6,0.3-1.3,0-1.5,0.2s-1.4,0.3-1.4-0.3c0-0.7,1.2-0.6,0.6-1.4c-0.5-0.7-1-0.3-1-1c0-0.4,0.9-1,1.5-1.2c0.5-0.2,1.4-0.7,2.6-0.1
			c2.8,1.3,2.3,0.2,3.3,0.3c1,0,0.7,0.5,2.7,0.6c0.9,0,2.1,0.1,2.1-0.4s-0.7-0.6-1.2-0.6c-0.5-0.1-1.1,0.4-1.5-0.3
			c-0.2-0.4,0.7-0.5,0.6-1.2c-0.1-0.6-1,0-1.1-0.5c-0.1-0.7,0.5-1.3-0.2-1.8c-0.3-0.2-0.8-0.3-1.3-0.1c-0.5,0.3-0.8,0.6-1.6-0.1
			s0.5-1,0.1-1.5c-0.3-0.5-1.5,0.3-1.2-0.5c0.2-0.4,0.8-1.3,1.5-1.2c3.3,0.4,4.3-0.7,5-0.6c1,0.1,1,0.5,2.1,0.5
			c0.8-0.1,1.2-0.9,2.7-0.9c2.4,0,2.5,0.4,3.3,0.6c3,0.9,1.9-0.7,2.5-0.7c0.9,0,1-0.5,1-0.8s-0.5-0.5-1.2-0.6s-0.6-0.7-2-0.4
			c-1.9,0.4-3,0.1-3.6,0.6c-1,0.8-1.9,0.6-2.4-0.1c-0.4-0.7-1.5-1.1-1.9-1c-1.1,0.3-1.5,0.2-1.9-0.3c-0.3-0.5-0.9-1.1-1.5-1.3
			c-0.6-0.2-1.4,0.4-1.8-0.7c-0.3-0.9,0.7-0.9,1-1.4c0.4-0.5,0-0.9,0.4-1.2c0.6-0.5,1.7-1,1.5-1.4c-0.5-1.1-0.9,0.1-1.2-0.1
			c-1.1-0.8-1.3,0.1-1.8-0.2c-0.6-0.3,0.6-0.7,0.7-1.3c0.1-0.5-0.3-1.1,0.6-1.7c1.4-1.1,0.4-1.1,0.3-1.5c-0.1-0.4,0.3-0.7,0.1-1
			c-0.2-0.4-0.6-0.4-0.6-0.8c-0.1-0.4,0.4-1.2,0.7-1.4c0.4-0.2,0.1-0.6,1.7-1c1.6-0.4,0.6-1,0.6-1.4c0-0.3,0.2-0.8,0.5-0.9
			s0.5,0,1-0.1c0.5,0,0.7-0.2,1.3-0.1s0.5,0.4,0.9,0.4c0.5,0.1,0.8,0,1.1,0c0.8,0,1,0.5,1.6,0.2c0.6-0.2,0.7-0.7,0.6-1.2
			c0-0.5-0.7-0.1-0.6-0.6c0.1-0.5,0.5-0.3,0.4-1.1c0-0.4,0-0.7,0.6-0.9c0.6-0.1,0.7-0.5,1.1-0.4c0.4,0,1.1,0.4,1.7,0.5
			c0.4,0,1.4-0.1,1.5,0.4c0.2,0.6,0.4,1,0.5,1.4c0.1,0.3,0.1,0.6,0.5,0.8c0.2,0.1,0.4,0.3,0.4,0.7c0,0.7,0.2,2.4,0.2,2.4
			s0.2,0.6,0.5,0.5s0.6-0.3,0.8-2.3c0-0.4,0.3-4.6,0.1-5c-0.5-0.7-0.2-0.9-0.5-1.3s-0.7,0-0.7-0.4s0.1-1.1-0.5-1.2
			c-0.8-0.2-0.8,0.6-0.8,1s-0.5,0.4-1.2,0.4c-0.4,0-1-0.2-1.4-0.4c-0.4-0.2-0.5-0.2-1-0.5c-0.3-0.2-0.4-0.4-0.3-1.4
			c0.1-0.8,0.8-1.5,0.4-1.8c-0.4-0.3-0.5-0.4-1.5-0.4s-1.7-0.1-1.7-0.6c0.1-0.8,0.9-0.8,2.5-0.7c0.7,0,1.2-0.5,1.1-1.2
			c-0.1-0.3,0.3-0.5,0.2-1.1c0-0.6-0.7-1.1-1.2-0.8c-0.8,0.4-1.1,0.1-1.6,0.4c-1,0.6-1.6,0.5-2,0.1c-0.3-0.2-0.7-0.7-0.5-1.2
			s0.4-0.6,0.5-1.1c0-0.6-0.6-0.6-0.1-1.2c0.5-0.6,0-1.5,0.5-1.8c1.1-0.7,0.1-1.4,1-1.9c0.5-0.2,0.6-1,0.6-1.5s-0.6-0.6-0.2-1.1
			c0.4-0.5,0.2-1.3,1.1-1.4c0.9-0.1,1.4-0.5,2.2-0.8c0.5-0.2,1.3-0.8,2.1-1.3c0.5-0.2,0.6-0.3,2.1-0.4c0.4,0,1.3-0.7,1.7-1.1
			c0.4-0.4,0.8-0.6,1.7-0.6c0.5,0,0.8,0.3,1.7,0.7s0.8,0.9,1.6,1.1c0.5,0.1,1.4-0.1,0.9,0.8c-0.4,0.6,0.2,1.1-0.7,1.3
			c-0.5,0.1-0.9,0.4-0.9,0.6c0,0.6,0.7,0.8,1.3,1.1c0.7,0.3,0.7,0.8,1.1,1.2c0.2,0.3,0.3,1.2,0.4,1.7s0.1,1,0.1,1.4s0.4,0.8,0.3,1.5
			c0,0.7-0.4,1-0.6,1.5c-0.2,0.4-0.5,1-0.6,1.3c-0.2,0.4-0.1,1.1-0.2,1.4c-0.1,0.4-0.3,1.2,0,1.4c0.3,0.2,0.7,0,1.1,0.1
			c0.2,0.1,0.6,0.5,0.7,0.7c0.1,0.3-0.1,1,0.8,1.2c0.4,0.1,0.6,0.4,0.6,0.7c-0.1,0.7-0.3,1.3,0.3,2.1c0.4,0.5,0.9,0.4,1.7,0.4
			c0.8,0,0.7-1.1,0.9-1.6c0.2-0.6,0.8-1.6,1.5-2c0.4-0.2-0.4-1.2,1.6-1.4c2-0.2,2.7-0.1,3,0.5c0.7,1.5,0,1.5-0.5,2.3
			c-0.2,0.4-0.7,0.5-0.7,1.2c0,1.1,1.3,0.9,1.3,1.4c0,0.3-0.5,0.4-0.5,0.8s0.6,0.5,0.7,1.1c0,0.2-1.1,0.9-0.4,1.4
			c0.4,0.3,0.7,0.5,0.8,1.8c0,0.6-0.8,0.5-0.7,1.1c0,0.8-0.1,0.9-0.5,1.2c-0.7,0.4-1.1,1-0.7,1.4s1,0.2,1.2,0.5
			c0.3,0.4-0.2,1.6,0.2,2c0.3,0.3,1.4-0.1,1,0.7c-0.6,1.1,0.8,1.3-0.5,1.9c-0.9,0.4-1.2,0.5-1.7,0.7c-0.7,0.3-1.5,0.6-1.6,1.1
			c-0.1,0.4,0.1,1.2-0.5,1.3c-0.6,0.1-0.6,0.9-0.4,1.2c0.2,0.3,0.7,0.6,0.7,1s-0.2,1-0.1,1.7c0.1,0.5,0.4,0.9,0.8,1.1
			c0.3,0.2-0.3,0.7-0.1,1c0.2,0.3,0.9,0.6,1.9,0.6c0.9,0,2-0.2,2.7-0.2s0.4,0.4,0.7,0.7c0.7,0.5,1.6,0.1,2,0.4
			c0.6,0.6,1.1,0.3,1.3,0.9c0.1,0.3,0.4,0.4,0.6,0.8c0.1,0.4-0.3,0.9,0.1,1.3c0.3,0.4,0.1,0.8-0.1,1.1c-0.2,0.3-0.6,0.8-0.7,1.3
			s0,0.9-0.5,1.4c-0.3,0.3-0.5,0.7-1.1,0.6s-1.2-0.3-2.1-0.5c-1-0.2-1,0.4-1.3,0.8s-1.6,0.5-1.6,1.1c0,0.5,0.2,0.5,1.4,0.3
			c0.4-0.1,0.4,0.9,0.2,1.2c-0.2,0.5-0.6,1.2-1.6,1.7c-0.6,0.2-1.4-0.9-1.7-0.8c-0.6,0.1-1.1-0.4-1.5,0s-0.8,0.4-1.1,0.6
			c-0.4,0.2,0.3,1.2-0.2,1.2c-0.4,0-1-0.1-1.2,0.4c-0.3,0.6,0.2,0.9,0.6,1.1s1,0.3,1,0.7c0,0.3-0.9,1.1-0.1,1.4c1,0.4,0.4,0.7,1.3,1
			s2.6,0.5,4.9,1.3c1.6,0.6,2.7,1,2.9,1.5c0.2,0.5-0.1,0.5,0,0.8c0.1,0.4,0.6,0.8,1.6,1.2c0.4,0.2,1,0.5,1.1,1
			c0.1,0.4-0.8,0.4-0.6,1.7c0.1,0.7-0.6,0.7-0.5,1.6c0.1,0.8-0.1,0.7-0.6,1.5c-0.5,0.9-1.2,1-0.9,1.6c0.1,0.3,0.8,0.3,1.4,0.3
			c0.4,0,0.7,0.2,2.1,0.3c1.9,0.1,2.1-0.5,3.5-0.6c0.5,0,1.4,0.2,1.6,0.5s0.1,0.6,0.1,1.1s-0.5,1.6-1,1.9c-0.5,0.3-1,0.1-1.3,0.5
			c-0.2,0.4,0.3,0.7,0.5,0.9c0.1,0.2,0.4,1,0,1.3c-0.5,0.4-0.8,1-1,1.3c-0.3,0.4-1.4,0.9-1.1,1.5c0.2,0.5,0.4,0.9,0.5,1.4
			c0.2,1-0.3,1.5-0.4,1.9c0,0.4,0.4,0.4,0.1,0.9c-0.5,0.7-0.9,0.9-0.7,1.5c0.2,0.5-0.8,0.3-1,0.3c-0.3,0.1-0.5,0.4-0.6,0.9
			s0.1,1.2-0.8,1.2s-2.1,0-2.5,0.3c-0.3,0.3,0.3,0.7-0.2,1c-0.4,0.3-0.7,0-1,0s-0.8,0.4-0.8,0.4s-0.3,0.4-0.4,0.7s-0.6,0.4-0.7,0.7
			c0,0.3,0.3,0.5,0,0.9c-0.2,0.3-0.6,0.5-1,0.7s-0.6-0.2-0.8,0.4c-0.1,0.4,0,0.6-0.3,0.9c-0.3,0.4-1,0.5-1.4,0.6
			c-1.5,0.6-3.2,0.9-3.6,0.9c-0.3,0-2.3,0-2.4-0.7c-0.1-1.2-1.1-1.3-1.2-1.7c-0.3-0.8-1.5-1.2-1.5-1.8c0-0.8-3-0.6-3.1,0
			c-0.1,0.5,0,3.2,0,3.8c0,1.1,0,2.4,0.2,7.7c0.1,3.6,0,4.3,0.4,7.9c0.3,2.2,0.7,3.2,1,3.7l0.9-0.2c-0.1,0,1.2-0.3,0.6-0.8
			c0.8-0.1,0.9-0.8-0.5-0.8c0.9-0.2,0.9-0.7,0.4-0.8c0.8-0.2,1.1-0.5,0.8-0.9c0.7,0.1,0.4-0.5,0.3-0.7c0.5,0.1,0.8-0.1,0.7-0.4
			c0.8,0.5,1.4,0,0.5-0.4c0.6-0.1,0.4-0.4-0.6-0.5c0.4,0.1,1.1-0.2,0.9-0.6c0.5,0.4,1.1-0.2,0.3-0.9c0.5-0.1,0.8-1,0.8-1.2
			c0,0.6-0.2,1.6,0.4,1.4c-0.4,0.3-0.3,0.7,0.8,0.7c-0.9,0.1-1.2,0.9,0,1c-0.5,0.4,0.8,0.3,1.4,0.5c-0.8,0.1-0.9,0.3-0.6,0.5
			c-0.8,0.3,0.1,0.6,1.3,0.8c-1.2,0.1-1.5,0.8-0.9,1.2c0.3,0.2,0.7,0.1,1.1,0s0.5-0.3,0.9-0.4c0.3-0.1,0.6-0.4-0.5-0.8
			c0.5,0.1,1.3,0,1-0.2c1.2-0.1,1.2-0.8-0.5-1.3c0.5,0.1,2.4-0.1,1.4-0.6c0.4-0.1,0.1-0.8-0.6-0.8c0.4-0.2,0.5-0.9-0.2-1.1
			c0.7,0,1.4-0.1,0.8-0.5c0.4,0,0.8-0.2,0.6-0.4c0.9,0.1,0.7-0.4,0.3-0.6c0.2-0.2,0.9-0.4,0.2-0.9c0.6,0.1,1.3,0,1.1-0.3
			c0.7-0.1,1.2-0.8-0.1-0.8c0.2-0.2,0.3-0.5-0.1-0.7c0.9,0,1.3-1.2,1-1.5c0.5,0.1,0.5-1.4,0.4-1.8c0.3,0.8,0.5,1.3,0.9,1.3
			c-0.5,0.3,0,0.9,0.6,1c-0.5,0.2,0.4,0.8,0.9,0.7c-0.8,0.4-0.9,1.2,1,1.8c-0.8-0.1-0.3,0.6,0,0.9c-0.3-0.2-1.3-0.2-1,0.2
			c-0.4,0.1-0.6,0.8,0.6,0.5c-0.1,0.3,0.5,0.5,1.3,0.7c-0.5,0.5-0.3,0.7,0.4,0.8c-0.2,0.2-0.5,0.4-0.1,0.7c-0.4,0.3-1,1,1,1.1
			c-0.9,0.4-0.1,0.6,0.4,0.8c-1.7-0.1-1.1,1.3,0,1.3c-0.7,0.3-0.3,0.8,0.5,1.1c-0.4,0.4,1.1,0.6,0.7-0.2c0.9-0.1,1.3-0.7,0.7-0.9
			c1.2-0.3,0.5-1.7,0.1-1.7c0.5-0.1,1.2-0.6,0.7-1c0.8,0.2,1.8-0.6-0.4-0.8c1.7-0.2,1.3-0.9,0.5-1.2c0.2-0.1,2.3,0.2,1.4-0.7
			c0.5-0.2,0-0.5-0.7-0.5c0.5-0.1,1.1-0.7,0.5-1c0.3,0,0.6-0.1,0.3-0.7c0.3,0.3,1.5,0.3,1.2-0.3c0.5-0.2,0.1-0.5-0.2-0.8
			c0.7-0.3,0.3-1.3,0-1.5c3.7-0.2,0.3-1.5,0-1.5c0.9,0,1.7-0.2,1.3-0.6c1.9,0.4,0.9-1.2,0.3-1.4c0.2,0,0.9-0.4,0.5-0.9
			c0.8,0.4,1.4,0.3,0.6-0.6c0.4-0.1,0.1-0.6-0.2-0.7c0.9,0.1,0.8-1.7,0.8-1.7s0.6,1.6,1.4,1.8c-0.7,0.3-0.6,1.5,0,1.6
			c-0.2,0.6,0.8,0.5,1.2,0.6c-1.4,0-1.1,0.9,0,1c-0.6,0.4,0.1,0.8,0.9,0.6c-0.8,0.3-0.8,0.8,0.2,1.4c-0.4,0.2-0.7,0.6-0.3,1.1
			c-0.6,0,0,0.8,1.1,1c-1.5,0-1.8,0.5,0,1.1c-0.3,0.1-0.2,0.5,0.5,0.7c-1,0.5-1,1.3,0.8,1.3c-0.7,0.2-0.1,0.4,0.5,0.8
			c-3.1,0.2-1.5,1.5-0.3,1.3c-1.1,0.5,0.6,0.4,1.3,0.7c-1.1,0.1-2.4,0.3-1.8,0.6c-0.6,0.2-0.7,1,1.8,0.9c-0.4,0.3,0.4,1.1,0.8,1.3
			c-2.9,0.4-1.6,0.9-0.1,1.2c-0.5,0.1-0.8,0.9,0.8,0.7c-1,0.2-1.8,0.7-1,1.2c0.8,0.4,0.7,0.5,9.7,1.4c7.1,0.6,8.3,0.8,10,1
			c1.9,0.3,0.5-0.9-0.1-1.4c2.9,0.5,1.5-0.9,1-1.3c0.4,0,1.3-0.2,0.6-0.6c1.6,0.2,1.1-0.9,0.8-1.2c2-0.5,1-1.1,0.3-1.4
			c0.4-0.1,0.7-0.3,0.4-0.7c1.3,0.5,0.9-0.2,0.4-0.5c0.5,0.1,1.3-0.8,0.5-1.2c0.9-0.2,0.6-0.6,0.4-0.7c2.2-0.1-0.3-1.1,0.3-0.9
			c1-0.3,1.7-1.4,0.9-1.6c0.8-0.1,1.3-0.8,0.6-1.2c0.4-0.2,0.5-0.9,0.3-1.3c1.4,0.3,1-1,0.6-1.1c1.1,0.2,1.2-2.2,1.2-2.2
			s0.1,1.6,1.1,1.7c-0.6,0.3,0.5,1.1,1,1.2c-0.9,0-1.1,0.6-0.6,0.8c-0.8,0.1,0.1,1,0.7,1.2c-1.4,0.3-0.2,0.8,0.1,1.1
			c-0.6,0.1-0.6,0.6,0.1,0.7c-0.7,0.3-0.1,1.1,0.2,1.2c0.4,0.1,0.8,0.1,1.1-0.3c0.6-0.6-0.1-1-0.5-1.2c1.3-0.2,1.3-1.3,0.8-1.5
			c1-0.1,0.7-1.3,0.3-1.5c0.8,0,0.8-1,0.9-1.6c0.2,0.8,0.2,1.5,0.7,1.7c-0.6,0.8,0.1,1.5,0.7,1.4c-0.4,0.2,0.1,0.9,0.5,1.1
			c-1.3,0.3,0.3,1.3,0.7,1.3c-0.7,0.7,0.5,1.2,0.5,1.2s-0.7,0.7-0.5,1.4c0.2,0.8,1.3,0.5,1.6,0.3c0.7-0.6-0.1-1.3-0.4-1.5
			c1.2-0.1,0.9-1.3,0.3-1.5c1.1,0,2.6-0.4,0.9-0.8c-0.2,0,1.3-0.5,0.3-0.8c1.4,0.1,0.5-1.3,0.5-1.3s1.5-0.2,0.7-0.7
			c0.8,0.2,0.9-0.6,0.9-0.6s-0.1,1,1.1,1.3c-0.8,0.4,0.2,0.4,0.4,0.5c-1.3,0.4-0.3,0.9,0.3,1.1c-0.7,0.2-0.6,0.7-0.1,1
			c-0.6,0.1,0.1,0.6,0.6,0.7c-0.9,0.7-0.5,1.4,0.2,1.5c-0.8,1.2,0.5,1.1,0.9,0.8c0.3-0.2,0.5-0.5,0.4-0.7s-0.3-0.2-0.6-0.3
			c1.2-0.3,0.6-1.1,0.2-1.3c1.6-0.1,1.2-1.1,0.8-1.4c0.4-0.1,0.8-0.2,0.6-0.5c0.4-0.1,0.2-0.5,0.4-1c0.1,0.7,0.2,1.2,0.6,1.4
			c-0.3,0.2,0.1,0.5,0.3,0.6c-1.1-0.2-0.3,0.7,0.1,0.7c-0.5,0.4-0.1,0.6,0.3,0.6c-0.3,0.3-0.1,0.5,0.2,0.6c-0.4,0.3,0.1,1,0.9,0.8
			c1.2-0.4,0-1.1,0-1.1c0.7,0,1.2-0.2,0.8-0.6c1.2,0.4,1.9-0.6,0.9-1.1c0.4-0.1,0.9-1-0.2-1.3c1.2,0.2,1.9-0.1,1.2-1
			c0.7,0.1,0.6-0.5,0.7-0.9c0.1,0.8,0.4,0.8,0.7,0.8c-0.4,0.5,0,0.7,0.2,0.9c-0.1,0.3,0.2,0.7,0.7,0.6c-0.3,0.2,0,0.5,0.3,0.5
			c-1.3,0.1-0.9,0.9-0.3,0.8c-0.1,0.4,0,0.6,0.7,0.5c-0.5,0.6,0.4,0.7,0.7,0.7c-1.1,0-1,1.3-0.2,1c-0.1,0.7,1.1,0.2,1.5,0.4
			c-0.8,0.8-0.6,1.4,1.1,1.1c-0.8,1.1,0.6,0.8,0.8,0.4c1.1,0.7,1.4-0.3,0.7-0.6c0.5-0.1,0.4-0.5-0.3-0.7c0.9,0,0.7-0.3,0.5-0.5
			c0.7,0.2,1-0.2,0.7-0.7c0.8,0.1,0.8-0.8,0.8-0.8s0.1,0.6,0.7,0.4c-0.3,0.6,0.2,0.8,0.9,0.6c-0.3,0.6,0.1,0.8,0.5,0.8
			c0,0.3,0,0.6,0.3,0.8l-0.1,0.2c-0.3,0.7-0.6,1.3-0.6,1.5c0,0.7,0.4,1.2-0.3,1.7l-0.2,0.2c-6.7-0.5-17.7,0.5-22.1,1
			c-5,0.5-7.2,0.8-7.2,0.8c-10.1,1.4-7.1,1.6,6.6,3.3c4.1,0.5,4.5,0.7,5.6,0.8s1.6,0.4,5.2,0.9C141.8,169.9,144.7,170.6,145.4,170.7
			 M39.9,76.3c0.3,0.7,0.4,0.5,1.1,1c0.5,0.3-0.3,0.7,0.3,1.2c0.5,0.3,0.1,0.6,1.8,0.7c0.9,0,0.7-0.3,1.5-0.6
			c0.7-0.3-0.5-0.8-0.3-1.4c0.1-0.2-0.5-0.8-1.4-0.9c-0.7-0.1-0.7-0.7-1-0.9c-0.4-0.2-0.6-0.1-1.1-0.2s-0.9-0.3-1.1,0.1
			C39.5,75.5,39.7,75.9,39.9,76.3 M49.9,53.1c0,0.3-0.1,1.1-0.1,1.1s0,0.7-0.1,1c-0.2,0.2-0.1,0.4,0.1,0.6c0.2,0.2,0.2,0.1,0.5,0
			s0.1,0.3,0.3,0.5l0.7-0.2c0-0.2,0.2-0.8,0.3-1.3c0.1-0.6,0.1-1.2,0-2.3S50.4,52,50.4,52S50,52.3,49.9,53.1 M45.7,55.8
			c-0.1,0.4-0.2,0.5-0.3,1s0.6,1.1,0.7,1.2c0.1,0.2,1.1,0.3,1.2,0c0.1-0.4-0.1-0.7,0-1.4c0.1-0.6-0.5-0.8-0.7-1.2s-0.4-0.5-0.6-0.3
			C45.8,55.3,45.8,55.5,45.7,55.8 M46.1,61.5c0.2,0.2,0.5-0.2,0.8-0.2s0.4-0.1,0.6-0.6c0.1-0.3,0.1-0.8-0.1-1.1
			c-0.1-0.3-0.5,0-0.7-0.2s-0.4-0.5-0.6-0.4c-0.2,0.2-0.4,0.7-0.4,1C45.7,60.3,45.9,61.2,46.1,61.5 M44.8,64.7
			c0.3,0,0.3-0.7,0.3-1.2c0-0.3,0.1-0.8-0.2-1.2c-0.3-0.4-0.6-0.1-0.7-0.1l-0.1,1c0.1,0.2,0.3,0.5,0.3,0.8
			C44.4,64.3,44.5,64.7,44.8,64.7 M50.9,72.7c-0.1,1.2,0.4,1.7,0.3,2.3c-0.1,0.6-0.1,0.9,0.2,1.5c0.1,0.3-0.3,2.5,0.1,2.7
			c0.4,0.2,0.5-0.4,0.8-0.8c0.3-0.3,0.7-2.5,0.8-2.9c0.3-0.8,0.5-2.2,0.6-2.8c0.1-0.7,0-2-0.4-3.2c-0.2-0.7-0.5-0.9-0.8-1.1
			s-0.6-0.1-0.6,0.1c-0.1,0.2-0.1-0.2-0.2-0.2c-0.4-0.2-0.5,0-0.6,0.2s-0.1,1.2-0.3,1.6C50.4,70.8,51,71.3,50.9,72.7 M55.9,72.9
			c0.2,0,0.3-0.2,0.5-0.5s0.4-0.8,0.3-1c0-0.2,0.4-0.7,0.2-0.9c-0.2-0.3-0.9,0.7-1,0.9c-0.2,0.2-0.6,0.9-0.5,1.2
			C55.5,72.8,55.7,72.9,55.9,72.9 M56.8,76c0,0.3,0.3,0.5,1,0.4c0.5-0.1,0.8-0.6,1.2-0.9c0.3-0.3,0.5-0.6,0.4-1s-1.3,0.1-1,0
			c0.2-0.1-0.7,0.6-0.9,0.7C57.1,75.4,56.8,75.7,56.8,76 M57,79.4c0,0.4,0.8,0.4,0.6,0.4s0.6,0.3,0.8,0.1c0.4-0.4,0.8-0.4,1-1
			c0.1-0.3,0.3-0.6,0.4-0.8c0.2-0.2-0.1-0.5-0.3-0.6c-0.2-0.1-0.4,0.1-0.8,0.3c-0.4,0.2-0.8,0.6-1.1,0.8C57.3,78.7,57,79,57,79.4
			 M51.1,87.1c0-0.4-0.2,2.1,0,2.5c0.2,0.5,0.5,0.4,0.7,0.2c0.2-0.3,0.2-0.4,0.6-0.5c0.4-0.1,0-1.1,0.2-1.4s0.3-2.1,0.2-3.1
			c-0.1-0.4-0.1-0.8-0.3-1.1c-0.3-0.6-0.7-1-1-0.7s0,0.4-0.3,1.1C51,84.5,51,87.5,51.1,87.1 M44.4,86c0-0.4,0-0.8-0.5-1
			s-1.4-0.2-1.8-0.1c-0.4,0-1.5,0.3-1.8,0.4c-0.4,0.1,0.3,0.6-0.8,0.4c-0.1,0-0.4,0.2,0,0.5s0.7,0.3,0.9,0.3s0.6,0,0.8,0
			c0.2,0.1,0.2,0.2,0.8,0.2c0.5,0,0.7-0.2,1.4-0.2C43.9,86.5,44.4,86.3,44.4,86 M55,90.4c0.2,0,0.6,0,0.9,0c0.4,0,0.8,0.1,1.5-0.1
			c0.5-0.1,0.5-0.3,0.6-0.6c0.1-0.3-0.3-0.4-0.7-0.6c-0.4-0.2-1.1,0-1.6,0.1s-1.1,0.7-1.1,0.7S54.8,90.3,55,90.4 M51.7,92.6
			c-0.2,0.3,0.2,0.6,0.4,0.6c0.3,0.1,0.6-0.2,0.8-0.4c0.2-0.2,0.4-0.3,0.7-0.5s0-0.6-0.3-0.6c-0.2,0-0.9,0.4-0.9,0.4
			S52,92.3,51.7,92.6 M36.1,88.7c0,0.2,0.2,0.4,0.7,0.4s1.1,0.1,1.2-0.1c0.2-0.2,0.4-0.3,0.6-0.3c0.2,0,0.8,0,0.7-0.5
			c-0.1-0.4-0.8-0.5-1.7-0.4c-0.4,0-1.1-0.4-1.6-0.2C35.6,87.9,36.2,88.2,36.1,88.7 M58.4,102.1c0.8-0.4,0.4-1,0.1-1.1
			c-0.2,0-0.8-0.2-1.3-0.2c-0.3,0-0.5-0.4-1.5-0.4s-2.4-0.1-3.3-0.1c-0.5,0-0.5,0.5-0.4,0.6c0.6,0.6,0.1,1-0.1,1.2
			c-0.2,0.2-0.1,0.4,0.2,0.7c0.3,0.3,0.8,0.3,1,0.4c0.3,0.1,0.6,0.3,1,0.4c0.4,0,1.6,0.3,1.8,0.3c0.3,0,0.5,0.1,0.7-0.2
			c0.2-0.2,0.5-0.5,0.9-0.6C58,103,57.9,102.3,58.4,102.1 M51.4,106.6c-0.2,0.4,0.3,0.7,0.9,2c0.2,0.4,0.6,0.2,1.4,0.5
			c0.6,0.3,0.9,0.2,1.4,0.4c0.5,0.2,0.6,0.6,0.9,0.8c0.3,0.3,0.5,0.1,0.7,0.3c0.3,0.1,0.4,0.5,0.9,0.8c0.4,0.2,0.3,0.5,0.8,0.6
			c0.3,0.1,0.3-0.2,0.5-0.1c0.4,0.2,0.6,0.2,0.8-0.1c0.2-0.2,0-0.5,0-0.9c0-0.2,0.4,0,0.4-0.3c0.1-0.4-0.4-0.7-0.5-0.9
			c-0.1-0.2,0-0.4-0.3-1s-0.3-0.2-0.7-0.8c-0.3-0.5-0.2-0.9-0.7-1.4c-0.8-0.8-1.6-0.9-3.1-1.3c-1.3-0.3-2.7-0.6-3.2-0.3
			C51.3,105.2,51.7,105.7,51.4,106.6 M51.8,113.9c-0.2,0.4,0.2,0.4,0.5,0.7c0.2,0.2-0.4,0.3-0.1,0.7c0.3,0.4,0.7,0.3,1.3,0.4
			c0.7,0.1,0.2,0.4,0.6,0.9c0.3,0.3,0.7,0.4,1.4,0.6c0.6,0.1,0.3,0.7,1.1,0.6c0.5-0.1,1.7-0.2,2-0.7c0.3-0.4,0-0.6-0.5-1.1
			c-0.1-0.1,0.2-0.6-0.1-1.2c-0.3-0.6-1.3-0.8-1.7-1c-0.3-0.3-0.7-0.8-1.4-1c-0.6-0.2-0.1-0.4-1-0.4c-0.5,0-1.2,0.4-1.8,0.5
			C51.8,112.8,52.1,113.4,51.8,113.9 M41.7,114.6c-0.1,0.6,0.2,0.9,0.6,1c0.4,0.1,0.5,0,0.8,0.1c0.4,0.2,0.6,0.3,1.2,0.3
			c0.6,0,0.7,0,0.7-0.3c0-0.2,0.2-0.7,0.3-0.8c0.1-0.2,0.2-0.7,0-0.8c-0.3-0.1-0.7-0.1-1.1-0.3c-0.4-0.2-0.5-0.5-1-0.5
			s-0.5,0.3-0.8,0.6C42,114.2,41.7,114.1,41.7,114.6 M51.8,118.7c-0.1,0.1-0.1,5-0.2,6c-0.1,0.5,0.1,1,0.4,1c0.3,0,0.5-0.3,0.5-0.3
			s0.2-0.3,0.2,0.1c0,0.4-0.1,0.4,0.1,0.5c0.2,0.1,0.5,0.1,0.7-0.4c0.3-0.6,0-1.3,0.4-1.2c1.1,0.1,0.7-0.9,0.9-1.4s0.3-2.3,0.2-2.5
			s-0.7,0.1-0.7-0.2c0-0.6,0.3-1.4-0.3-1.4c-0.5,0-0.2,0.4-0.5,0.5c-0.3,0-0.2,0.1-0.5,0c-0.2-0.3-0.3-0.3-0.5-0.4
			C52.1,118.6,51.9,118.6,51.8,118.7 M43,129.2c0.1,0.6-0.1,1.4,0.2,1.4s0.3,0.2,0.7,0.3c0.2,0,0.1-0.3,0.3-0.4
			c0.2-0.1,0.4,0.4,0.8-0.5c0.2-0.4,0.4-0.4,0.5-0.6c0.2-0.2,0.1-0.7,0-1s-0.2-0.8-0.4-0.9c-0.8-0.5-1.4-0.2-1.5,0.2
			c0,0.3-0.3,0.3-0.4,0.6C43.2,128.7,43,128.7,43,129.2 M34.4,111.1c0.4-0.1,0.8-0.3,1-0.5c0.2-0.3,0.5-0.4,0.5-0.7
			c0-0.3,0-0.7,0-0.8c0-0.5-0.4-0.4-0.7-0.2c-0.3,0.1-0.3,0.4-0.6,0.6s-0.6,0.5-1,0.6c-0.5,0.1-0.8,0.3-0.6,0.6
			c0.1,0.2,0,0.5,0.4,0.6C33.8,111.3,34.1,111.1,34.4,111.1"/>
	</g>
	<g>
		<defs>
			<rect id="SVGID_11_" x="-8" y="-7.7" width="198.3" height="254.4"/>
		</defs>
		<clipPath id="SVGID_12_">
			<use xlink:href="#SVGID_11_"  style="overflow:visible;"/>
		</clipPath>
		<path class="st5" d="M55.5,132.3c0.3,0.3,1-0.2,1.4-0.1c1,0.3,1,0,1.8,0c1-0.1,1-0.6,1.3-0.6c0.4,0,1.1,0,1.8-0.5
			c0.3-0.2,0.3-0.5,0.3-0.7c0-0.4-0.3-0.3-0.6-0.3c-0.3,0,0-0.2,0.3-0.3s0.6-0.1,0.8-0.4c0.2-0.2,0.2-0.4-0.2-0.6
			c-0.4-0.3-0.6,0-4.1,1c-3.4,1-3.1,1.8-2.9,1.8C55.8,131.6,55.2,132,55.5,132.3"/>
	</g>
	<g>
		<defs>
			<rect id="SVGID_13_" x="-8" y="-7.7" width="198.3" height="254.4"/>
		</defs>
		<clipPath id="SVGID_14_">
			<use xlink:href="#SVGID_13_"  style="overflow:visible;"/>
		</clipPath>
		<path class="st6" d="M31.3,141.9c-0.9,0.3-1.5-0.3-2.4-0.1c-1.2,0.3-4.4,0.5-6.5,0.8c-0.4,0.1-0.5,0.1-2.5,0.3
			c-1.2,0.1-2.5,0.2-2.8,0.1v0.1c0.1,0.4,0.4,1.1,0.8,2c0.4,1,1.2,3.9,1.4,4.6c0.2,0.6-0.1,1.5,0.1,2.1s0.8,1.1,1,1.6s2,4,2.8,5.2
			c0.6,0.9,2.6,4.6,3.6,6.6v0.1c0.2-0.1,0.4-0.2,0.6-0.2c0.4-0.2,0.3-0.3-0.1-0.4c0.3-0.1,0.8-0.4,0.4-0.6c0.4-0.2,0.8-0.7,0.4-0.8
			c0.3-0.2,0.5-1.2,0.5-1.2s0.1,0.6,0.5,0.9c-0.4,0,0.1,0.2,0.2,0.4c-0.2,0.1,0.1,0.3,0.3,0.4c-0.3,0.1-0.2,0.3,0.2,0.4
			c-0.2,0.2,0.1,0.3,0.4,0.1c-0.1,0.2-0.3,0.3-0.3,0.3s1.7-0.2,2.6-0.8c0.9-0.6,0.5-0.8-0.1-1.1c0.6-0.2,2.3-0.7,1.7-1.2
			c0.4-0.4-0.1-0.6-0.7-0.7c2-0.4,2.1-0.8,1.8-0.9c1.1-0.6-0.2-0.8-0.6-1.1c1.3,0.2,1-0.2,0.9-0.5c1.1,0.5,1.2-0.6,0.7-0.9
			c0.5-0.1,0.5-0.7-0.1-1.1c1.1,0.1,1.7,0,0.8-0.7c0.5-0.2,0.6-0.5,0.4-0.7c0.6-0.4,0.2-0.7-0.1-0.9c0.6-0.3,0.5-1,0.2-1.1
			c0.5-0.6,0.7-2,0.7-2s0,1.1,0.8,1.5c-0.3,0.3-0.1,0.9,0.3,0.9c-0.4,0.7-0.1,0.9,0.6,1c-0.3,0.4-0.5,0.7,0.5,0.8
			c-0.9,0.6-0.5,0.9,0.3,0.9c-0.9,0.3-0.3,0.9,0.6,0.7c-0.7,0.5-0.7,1.1,0.3,0.9c-0.9,0.4-1,1.1,0.4,1.1c-0.5,0-0.9,1.3,0.9,1.7
			c0.2-1.5,0.7-11.7,0.8-13.6c0.1-2.1,0-3.4,0-3.4s-0.1-0.1-1,0s-1.2,0.4-2.5-0.1c-1.3-0.4-1.5-0.2-2.5-0.1
			c-0.8,0.1-1.3-0.1-2.2,0.3c-1,0.4-2-0.1-2.5-0.5c-0.4-0.4,0-1.1,0.7-1.1C34.8,141.8,32.2,141.6,31.3,141.9"/>
	</g>
	<g>
		<defs>
			<rect id="SVGID_15_" x="-8" y="-7.7" width="198.3" height="254.4"/>
		</defs>
		<clipPath id="SVGID_16_">
			<use xlink:href="#SVGID_15_"  style="overflow:visible;"/>
		</clipPath>
		<path class="st7" d="M145.4,170.7c-0.6,0-3.6-0.8-5.2-1c-3.6-0.4-4.1-0.8-5.2-0.9c-1-0.1-1.4-0.3-5.6-0.8
			c-13.7-1.7-16.6-1.9-6.6-3.3c0,0,2.3-0.2,7.2-0.8c4.4-0.5,15.5-1.5,22.1-1l-0.2,0.2c-1.4,1.2-4.3,4.7-4.9,5.4
			c-0.5,0.6-1.1,1.1-1.5,1.9C145.5,170.5,145.4,170.6,145.4,170.7L145.4,170.7z"/>
	</g>
	<g>
		<defs>
			<rect id="SVGID_17_" x="-8" y="-7.7" width="198.3" height="254.4"/>
		</defs>
		<clipPath id="SVGID_18_">
			<use xlink:href="#SVGID_17_"  style="overflow:visible;"/>
		</clipPath>
		<path class="st8" d="M163.5,139.5c0.3-0.7,0.5-1.7,1-2.3c0.9-1.3,1.8-2.8,3-3.6c1.1-0.8,1.3-2.1,1.9-4.4c0.2-3.9,0.7-4.2,0.9-4.6
			c0.2-0.4,0.5-1.7,1.4-3.4c0.6-1.2,1.5-3.7,1.2-4.3c-0.6-1.2-1.1-2.3-1.7-4.4c-0.9-4.9-0.2-6.6,0.9-8.1c1.5-2.3,2.4-3.7,4-4.4
			c0.7-0.3,0.6-1.7,0.5-2.6c-0.4-2.4,0.3-2.2,0.7-3.5s0.8-2.9,0.8-3.4c0-0.4-0.2-1.5-0.3-2.1c-0.2-1-0.3-2.4,0-3
			c0.4-0.8,0.8-1.7,0.8-2.4c0-0.3,0.4-0.8,0.6-1.3c0.2-0.5,0.5-1.7,0.5-2.6c0-0.3,0.4-2.2,0.6-3.6c0.5-2.7,0.2-4-0.1-4.8
			c-0.3-1.1-0.9-1.6-0.9-2c0-0.5-0.1-2-0.2-3c-0.1-0.5,2.2-3.7,2.6-4.3c0.2-0.3-0.1-2.5-0.2-2.9c0-0.5-0.5-2.7-0.5-3.3
			s0.1-1,0.1-1.6S181,52,181,50.8c-0.1-2.2,0.1-4.4,0.1-5c0-0.5-0.8-0.5-2.3-1.3s-4.7-3.9-5.2-4.2c-0.5-0.2-3.1-0.7-4.5-0.7
			s-4.3,0.7-5.6,0.9s-2.9-0.4-3.6-0.6c-0.8-0.2-2.2-0.6-2.8-0.6c-1.8,0.2-4.6,0.3-5.8,0c-1.4-0.3-2.7-0.6-3.4-1.1
			c-0.6-0.4-0.8-0.3-1.6-1c-0.6-0.6-0.7-0.9-1.2-1s-4.6-0.4-5.4-1.2c-0.8-0.8-1.9-2.1-2.4-5c-0.6-2.8,0.4-4.8,1.5-5.3
			c1.6-0.9,3.9-2.2,5.1-2.3c0.5,0-0.7-2.2-1.3-4.2c-0.3-0.8-1.4-0.6-4-3.5c-1.2-1.3-3.2-3.9-3.8-4.8c-0.5-0.9,0.1-1.4-0.5-1.4
			c-0.7-0.1-3.1,0-6.8-0.6c-3.7-0.7-6.2-1.7-7.3-2.1c-1.1-0.3-3.8-1.2-4.6-1.5c-0.8-0.3-2.5-1-3.9-1.5c-1.5-0.5-2.1-1.7-2.8-1.7
			c-0.7,0-3.5,1.9-6.8,2.4c-3.3,0.5-4.4-0.4-6.2-0.6c-1.8-0.3-3.5-0.6-5.7-0.8s-8.5,1-9.6,1.2c-1.1,0.1-2.7,0.9-4,0.9
			c-0.9,0-5.7,1.4-6.6,1.6c-0.9,0.2-2.1-0.3-2.7-0.1c-0.9,0.3-2.4,0.6-2.9,0.7c-0.4,0.1-6.8,2.3-8,2.5c-1.3,0.3-3.1,0.9-4.6,1.5
			c-1,0.4-1.6,1.1-2.4,1.6c-2.8,1.9-3.5,2-4.8,2.4c-0.9,0.3-1.3,0.6-3.2,0.7S39,15.6,39,15.9c0,1.3-0.5,3.9,0,4.2
			c1,0.6,3.6,4.8,3.7,7.4c0.1,2.9-0.2,4.9-0.4,5.8c-0.1,0.8-0.2,1.2-0.6,1.7c-0.4,0.4-2.7,1.2-4.1,1.3c-1.4,0.1-2.1,0.1-7.1-1.1
			c-3.9-1-4.3-1.4-4.7-2s-1.4-1.1-2.1-1.4c-0.7-0.3-1.4-0.5-2.1-1.2c-0.6-0.6-3.7,0.9-7.9,1.2c-0.8,0.1-2.2,2.6-4.7,3.9
			c-2,1-3,1.4-3.7,1.9c-1.8,1.3-4,1.5-3.8,2.1c0.4,1-0.4,1.6-0.1,4.1c0.4,4.3-0.6,6.5-0.6,8.7c0,1,1.2,2.3,1.7,2.7s1.5,2,1.7,3
			c0.3,1.1-0.2,4.7-0.7,7.6C3,68.9,2.6,71.9,2.7,73c0.1,0.7,0.9,2.2,1.4,3c0.5,1,1.6,4.6,1.6,6.4c0.1,1.7-0.4,3.7-0.4,4.1
			c0,0.3,0.6,1.7,1.1,2.4c0.6,0.9,2,3.8,2.4,4.5c0.5,1,0.6,2.2,0.6,2.2s-0.1,1.5-0.2,2.3c-0.1,0.9-0.4,3.9-0.7,7.8
			c-0.3,3.8-0.3,7,0.1,7.3c0.4,0.4,1.2,1.1,1.5,1.7c0.3,0.5,2.7,4.7,3,5.3s0.9,2.2,1.1,3.5c0.2,1.2,0.6,3.5,0.7,4.2
			c0.1,0.8,1.1,5.9,1.3,6.7c0.2,1,0.6,3.9,0.7,5.1c0.1,1.3,0.3,3.5,0.3,3.9c0.1,0.4,0.5,1.2,0.8,2.1c0.5,1,1.2,3.9,1.4,4.6
			c0.2,0.6-0.1,1.5,0.1,2.1s0.8,1.1,1,1.6s2,4,2.8,5.2c0.7,1.1,3.2,5.9,3.9,7.5c0.1,0.3,0.2,0.4,0.2,0.5c0,0.6,0.1,1.1,0.4,1.3
			c0.3,0.2,0.9,1.4,1.3,1.5c0.6,0.1,1.2,0.4,1.5,0.7c0.3,0.4,2.5,2.6,3.3,3.5s1.4,1.5,1.2,2.2c-0.1,0.6,0,1.6,0.3,1.9
			c0.6,0.6,1.5,1.1,3.3,3.4c1.5,2,2,3.6,2.8,5c0.5,0.9,1.2,3.1,1.2,3.7c0,0.6,0.4,1.1,0.7,1.4c0.4,0.5,1.4,1.3,2.1,1.6
			c0.3,0.2,1.5,1.1,2.5,2.3c1,1.1,1.8,2,2.3,4.6c0.1,0.8,0.2,1.4,0.4,1.5c0.3,0.1,0.9,0.3,1.1,0.5c0.2,0.3,0.2,0.7,0.6,1
			c1.3,0.8,1.5,1.8,1.6,2.3c0.1,0.6,0.4,2.2,0.5,2.8c0.1,0.5,2.6,3.2,3.3,4.3c0.6,0.9,1.4,1,3.2,2c1.8,1,1.9,1.7,2,2.2
			s0,3.1,0.3,3.4c0.4,0.6,0.7,0.4,1.4,1.2c0.7,0.8,1.6,2.1,2.1,2.8c0.5,0.6,4.2,2.9,6.2,4.8c0.5,0.5,1.7,1.8,2.5,2.3
			c0.6,0.4,1.4,0.8,2.1,1.1s1.7,0.7,3.8,2.1c0.5,0.3,1.7,0.9,2.4,1.3c0.9,0.5,3.4,2,4.3,2c1.9,0,2.9,0.7,4,0.5
			c4.6-0.9,5.6-1.5,6.7-2.6c1-1,2.5-3.1,3.1-3.6c0.5-0.4,2.2-2.3,3.5-3.2c3.6-3.5,3.2-2.8,5.5-4.3c1.2-0.8,2.3-1.1,3-2.2
			c1.1-1.7,2.8-4.3,3.1-5.4c0.2-0.7,0.6-0.8,0.8-1.5c0.2-0.6,0.1-1.1,0.9-1.5c0.6-0.3,2-1.9,2.8-2.3c0.5-0.3,0.1-1.7,0.7-2.4
			c0.4-0.5,2.2-1.7,3.8-2.8c3-2.1,5.2-5.1,6.3-6.2c1.3-1.3,0.6-3.1,0.2-3.6l0.9-1.3c0,0,1.6-1.7,2.5-2.7s3.4-4.1,4.1-4.7
			c0.5-0.5,0.2-3.2,0.3-4s1.9-2.2,2.5-2.8s0.9-1.2,1-2.3s0.9-6,1.2-6.9c0.1-0.4,0.3-0.8,0.5-1.1c0.5-0.7,1.1-1.3,1.5-1.9
			c0.6-0.7,3.6-4.4,5.1-5.6l0.2-0.2c0.7-0.5,0.3-1,0.3-1.7c0-0.3,0.3-1,0.7-1.7c0.4-0.8,1-1.7,1.4-2.1c1.3-1.4,1.1-2.2,3.2-3.8
			c0.8-0.6,0.5-2.2,0.5-2.2s0-0.6,0.4-1.6s2-2.8,2.9-3.8c0.4-0.4,0.7-1.6,0.7-2.2c0-0.5-0.1-1.6,0.5-2.8c0.1-0.2,0.2-0.4,0.4-0.6
			C163.3,140,163.4,139.7,163.5,139.5z"/>
	</g>
	<g>
		<defs>
			<rect id="SVGID_19_" x="-8" y="-7.7" width="198.3" height="254.4"/>
		</defs>
		<clipPath id="SVGID_20_">
			<use xlink:href="#SVGID_19_"  style="overflow:visible;"/>
		</clipPath>
		<path class="st9" d="M78,179.4c0,0,1.9-0.9,4.2-1c2.5-0.2,2.2,0.1,4.6,0.4c0.3,0,0.9,0.1,1.5,0.2c0.6,0.1,1.8,0.1,2.7,0.4
			c0.9,0.3,2.1,0.9,2.8,1c0.7,0.2,1.2,0.3,1.8,0.5c0.6,0.2,0.9,0.4,1.5,0.6c0.5,0.2,2,0.8,3.3,1.1s2.2,0.4,3.2,0.6
			c1,0.3,2.9,0.6,3.8,0.9c1.2,0.5,2.9,1.3,3.7,2.1c0.8,0.9,1.2,1,1.8,3.4c0.3,1.2,0,1.6-0.3,2.9c-0.3,1.3-0.5,1.7-0.3,2.2
			s0.1,1.2-0.1,1.6c-0.2,0.5-0.5,0.5-0.6,0.8s-0.7,0.7-0.7,0.7s-0.4-0.1-0.5-0.3s-0.2-0.4-0.3-0.6c-0.1-0.3-0.4-0.6-0.4-0.8
			c0.1-0.2-0.2-0.4,0.1-0.9c0.3-0.4,0.5-0.9,0.5-0.9s0.4-0.8,0.5-1.4c0.1-0.5,0.3-1.5,0.3-1.9c-0.1-0.4-0.2-1.2-0.2-1.2l-0.5-0.7
			c0,0-0.6-0.2-0.7,0.2c-0.2,0.6-0.1,0.5-0.5,1.8c-0.3,1-0.1,0.7-0.6,1.9s-0.8,1.5-1,2.2s0.9,1.4,1.2,2.6c0.3,1.3,0.5,1.8,0.7,2.1
			s0.2,0.6,0.4,0.7c0.2,0.1,0.5,0.1,0.3,0.9c-0.2,0.8-1,2.4-1.1,3.3c-0.1,0.9,0,1.4-0.1,1.4c0,0.1-0.2,0.1-0.3,0.3
			c-0.1,0.1,0,0.2-0.1,0.5c0,0.4-0.1,1.4-0.1,1.4s0.1,0.4-0.3,0.4s-2.5,0-2.7,0c-0.3,0-0.8-0.2-0.7-0.6c0.1-0.4,0.1-1.1,0.4-1.2
			c0.3-0.2,0.6-0.3,0.6-0.3s0.3-0.7,0.4-1.1c0.1-0.4,0.2-0.9,0.3-1.1c0.1-0.3,0.2-1.2,0.2-1.5s0.1-1.5-0.7-2.6c-0.7-1-0.4-0.9-1-1.3
			c-0.6-0.4-1.5-0.9-2.3-1c-0.5,0-1.2,0.2-1.6,0.4s-1.2,0.6-2,1s-1.6,0.8-1.9,1s-0.6,0.1-0.6-0.3c-0.1-0.4,0-0.7-0.4-0.6
			c-0.4,0-0.5,0.1-1,0.2c-0.4,0.1-0.8,0.5-1,1.1s-0.3,0.7-0.5,1.3c-0.1,0.4-0.3,0.8-0.7,1.2c-0.3,0.3-0.3,0.1-1,0.8
			c-0.6,0.6-0.6,0.6-1,1.3s-0.3,1.1-0.4,1.4c-0.1,0.2-0.1,0.6-0.1,0.8s-0.1,0.7-0.1,0.7s0,0.5-0.2,0.5c-1,0-2.1,0-2.6,0.1
			c-0.4,0-0.5-0.1-0.4-0.4c0.3-0.6,0.6-0.9,0.7-1.1c0.1-0.2,0.2-1.2,0-1.8c-0.1-0.3-0.7-1.2-0.8-1.4c-0.1-0.2-0.1-0.7-0.4-1
			c-0.3-0.2-0.9-0.8-1-1s-0.9-0.7-1.3-0.7s-2.5-0.4-3-0.7s-2.1-1.1-2.3-1.3c-0.3-0.1-1.2-0.6-1.5-0.6s-0.6-0.1-1,0.3
			c-0.6,0.6-0.8,0.6-1.1,0.8c-0.3,0.3-0.2,0.3-0.5,0.6c-0.2,0.3-0.6,1.1-0.7,1.4c-0.6,1.2-1.1,1-1.1,1s-0.6,0.3-1.4-1
			s-1.2-1.8-1.2-1.8s-0.5-0.4-0.8-0.3c-0.4,0.1-1.2,0.2-1.5,0.2c-0.3-0.1-0.6,0.1-0.9-0.4s-0.6-1.1-0.5-2s-0.4-1.5-0.4-1.8
			c-0.1-0.3-0.4-0.6-0.6-1.2c-0.2-0.6-0.2-1.5-0.6-2.3c-0.5-0.8-0.7-2.4-0.7-2.4s0-0.3,0-1c0.1-0.7,0-1.3,0.2-2.2s0.4-1.4,1.1-2
			c0.5-0.4,0.9-1.1,1.5-1.3s1.3-0.8,1.8-0.8s0.6-0.4,1.7-0.2c1,0.2,1.8,0.4,2.4,0.3c0.6-0.1,1.3-0.1,1.9-0.9
			c0.6-0.8,1.1-1.6,1.4-1.7C76.8,180.2,78,179.4,78,179.4"/>
	</g>
	<g>
		<defs>
			<rect id="SVGID_21_" x="-8" y="-7.7" width="198.3" height="254.4"/>
		</defs>
		<clipPath id="SVGID_22_">
			<use xlink:href="#SVGID_21_"  style="overflow:visible;"/>
		</clipPath>
		<path class="st10" d="M71.6,188.8c0,0,1.6-0.1,1.7,1.7c1.4-1.2,1.2-2.2,1.2-2.2s0.1-1.5-1.1-2.7s-1.3-0.6-1.2,0.2
			c0.1,0.8,0.4,1,0.1,1.7C72,188.1,71.6,188.8,71.6,188.8"/>
	</g>
	<g>
		<defs>
			<rect id="SVGID_23_" x="-8" y="-7.7" width="198.3" height="254.4"/>
		</defs>
		<clipPath id="SVGID_24_">
			<use xlink:href="#SVGID_23_"  style="overflow:visible;"/>
		</clipPath>
		<path class="st11" d="M69.2,191.1c-0.1,0.2-0.2,0.3-0.4,0.4c-0.2,0.1-0.5,0.6,0,0.7c0.6,0.1,0.8,0,1.2,0c0.5-0.1,0.9-0.2,1.2-0.3
			c0.4-0.1,0.6-0.6,0-0.7c-0.7-0.2-0.9-0.6-1.4-0.6C69.4,190.5,69.3,190.9,69.2,191.1"/>
	</g>
	<g>
		<defs>
			<rect id="SVGID_25_" x="-8" y="-7.7" width="198.3" height="254.4"/>
		</defs>
		<clipPath id="SVGID_26_">
			<use xlink:href="#SVGID_25_"  style="overflow:visible;"/>
		</clipPath>
		<polygon class="st12" points="78.4,53.3 82.5,53.3 86.5,61 86.5,61 86.5,53.3 89.4,53.3 89.4,64.7 85.5,64.7 81.3,56.9 81.3,56.9 
			81.3,64.7 78.4,64.7 		"/>
	</g>
	<g>
		<defs>
			<rect id="SVGID_27_" x="-8" y="-7.7" width="198.3" height="254.4"/>
		</defs>
		<clipPath id="SVGID_28_">
			<use xlink:href="#SVGID_27_"  style="overflow:visible;"/>
		</clipPath>
		<polygon class="st13" points="78.4,53.3 82.5,53.3 86.5,61 86.5,61 86.5,53.3 89.4,53.3 89.4,64.7 85.5,64.7 81.3,56.9 81.3,56.9 
			81.3,64.7 78.4,64.7 		"/>
	</g>
	<g>
		<defs>
			<rect id="SVGID_29_" x="-8" y="-7.7" width="198.3" height="254.4"/>
		</defs>
		<clipPath id="SVGID_30_">
			<use xlink:href="#SVGID_29_"  style="overflow:visible;"/>
		</clipPath>
		<path class="st14" d="M95.4,53.3h3.9l4.6,11.4h-3.5l-0.9-2.4H95l-0.9,2.4h-3.2L95.4,53.3z M97.3,55.6L97.3,55.6L95.7,60h3
			L97.3,55.6z"/>
	</g>
	<g>
		<defs>
			<rect id="SVGID_31_" x="-8" y="-7.7" width="198.3" height="254.4"/>
		</defs>
		<clipPath id="SVGID_32_">
			<use xlink:href="#SVGID_31_"  style="overflow:visible;"/>
		</clipPath>
		<path class="st15" d="M95.4,53.3h3.9l4.6,11.4h-3.5l-0.9-2.4H95l-0.9,2.4h-3.2L95.4,53.3z M97.3,55.6L97.3,55.6L95.7,60h3
			L97.3,55.6z"/>
	</g>
	<g>
		<defs>
			<rect id="SVGID_33_" x="-8" y="-7.7" width="198.3" height="254.4"/>
		</defs>
		<clipPath id="SVGID_34_">
			<use xlink:href="#SVGID_33_"  style="overflow:visible;"/>
		</clipPath>
		<polygon class="st16" points="106.2,55.6 103.3,55.6 103.3,53.3 112.3,53.3 112.3,55.6 109.4,55.6 109.4,64.7 106.2,64.7 		"/>
	</g>
	<g>
		<defs>
			<rect id="SVGID_35_" x="-8" y="-7.7" width="198.3" height="254.4"/>
		</defs>
		<clipPath id="SVGID_36_">
			<use xlink:href="#SVGID_35_"  style="overflow:visible;"/>
		</clipPath>
		<polygon class="st17" points="106.2,55.6 103.3,55.6 103.3,53.3 112.3,53.3 112.3,55.6 109.4,55.6 109.4,64.7 106.2,64.7 		"/>
	</g>
	<g>
		<defs>
			<rect id="SVGID_37_" x="-8" y="-7.7" width="198.3" height="254.4"/>
		</defs>
		<clipPath id="SVGID_38_">
			<use xlink:href="#SVGID_37_"  style="overflow:visible;"/>
		</clipPath>
		<rect x="114" y="53.3" class="st18" width="3.2" height="11.4"/>
	</g>
	<g>
		<defs>
			<rect id="SVGID_39_" x="-8" y="-7.7" width="198.3" height="254.4"/>
		</defs>
		<clipPath id="SVGID_40_">
			<use xlink:href="#SVGID_39_"  style="overflow:visible;"/>
		</clipPath>
		<rect x="114" y="53.3" class="st19" width="3.2" height="11.4"/>
	</g>
	<g>
		<defs>
			<rect id="SVGID_41_" x="-8" y="-7.7" width="198.3" height="254.4"/>
		</defs>
		<clipPath id="SVGID_42_">
			<use xlink:href="#SVGID_41_"  style="overflow:visible;"/>
		</clipPath>
		<path class="st20" d="M125.2,53.1c3.9,0,6,2.2,6,5.9c0,3.6-2.1,5.9-6,5.9s-6-2.3-6-5.9C119.2,55.3,121.3,53.1,125.2,53.1
			 M125.2,62.6c1.9,0,2.7-1.8,2.7-3.6c0-2-0.8-3.6-2.7-3.6s-2.7,1.7-2.7,3.6C122.5,60.9,123.3,62.6,125.2,62.6"/>
	</g>
	<g>
		<defs>
			<rect id="SVGID_43_" x="-8" y="-7.7" width="198.3" height="254.4"/>
		</defs>
		<clipPath id="SVGID_44_">
			<use xlink:href="#SVGID_43_"  style="overflow:visible;"/>
		</clipPath>
		<path class="st21" d="M125.2,53.1c3.9,0,6,2.2,6,5.9c0,3.6-2.1,5.9-6,5.9s-6-2.3-6-5.9C119.2,55.3,121.3,53.1,125.2,53.1z
			 M125.2,62.6c1.9,0,2.7-1.8,2.7-3.6c0-2-0.8-3.6-2.7-3.6s-2.7,1.7-2.7,3.6C122.5,60.9,123.3,62.6,125.2,62.6z"/>
	</g>
	<g>
		<defs>
			<rect id="SVGID_45_" x="-8" y="-7.7" width="198.3" height="254.4"/>
		</defs>
		<clipPath id="SVGID_46_">
			<use xlink:href="#SVGID_45_"  style="overflow:visible;"/>
		</clipPath>
		<polygon class="st22" points="133.2,53.3 137.2,53.3 141.3,61 141.3,61 141.3,53.3 144.2,53.3 144.2,64.7 140.2,64.7 136.1,56.9 
			136,56.9 136.1,64.7 133.2,64.7 		"/>
	</g>
	<g>
		<defs>
			<rect id="SVGID_47_" x="-8" y="-7.7" width="198.3" height="254.4"/>
		</defs>
		<clipPath id="SVGID_48_">
			<use xlink:href="#SVGID_47_"  style="overflow:visible;"/>
		</clipPath>
		<polygon class="st23" points="133.2,53.3 137.2,53.3 141.3,61 141.3,61 141.3,53.3 144.2,53.3 144.2,64.7 140.2,64.7 136.1,56.9 
			136,56.9 136.1,64.7 133.2,64.7 		"/>
	</g>
	<g>
		<defs>
			<rect id="SVGID_49_" x="-8" y="-7.7" width="198.3" height="254.4"/>
		</defs>
		<clipPath id="SVGID_50_">
			<use xlink:href="#SVGID_49_"  style="overflow:visible;"/>
		</clipPath>
		<path class="st24" d="M150.2,53.3h3.9l4.6,11.4h-3.5l-0.9-2.4h-4.5l-0.9,2.4h-3.2L150.2,53.3z M152.1,55.6L152.1,55.6l-1.6,4.4h3
			L152.1,55.6z"/>
	</g>
	<g>
		<defs>
			<rect id="SVGID_51_" x="-8" y="-7.7" width="198.3" height="254.4"/>
		</defs>
		<clipPath id="SVGID_52_">
			<use xlink:href="#SVGID_51_"  style="overflow:visible;"/>
		</clipPath>
		<path class="st25" d="M150.2,53.3h3.9l4.6,11.4h-3.5l-0.9-2.4h-4.5l-0.9,2.4h-3.2L150.2,53.3z M152.1,55.6L152.1,55.6l-1.6,4.4h3
			L152.1,55.6z"/>
	</g>
	<g>
		<defs>
			<rect id="SVGID_53_" x="-8" y="-7.7" width="198.3" height="254.4"/>
		</defs>
		<clipPath id="SVGID_54_">
			<use xlink:href="#SVGID_53_"  style="overflow:visible;"/>
		</clipPath>
		<polygon class="st26" points="160.1,53.3 163.2,53.3 163.2,62.4 168.2,62.4 168.2,64.7 160.1,64.7 		"/>
	</g>
	<g>
		<defs>
			<rect id="SVGID_55_" x="-8" y="-7.7" width="198.3" height="254.4"/>
		</defs>
		<clipPath id="SVGID_56_">
			<use xlink:href="#SVGID_55_"  style="overflow:visible;"/>
		</clipPath>
		<polygon class="st27" points="160.1,53.3 163.2,53.3 163.2,62.4 168.2,62.4 168.2,64.7 160.1,64.7 		"/>
	</g>
	<g>
		<defs>
			<rect id="SVGID_57_" x="-8" y="-7.7" width="198.3" height="254.4"/>
		</defs>
		<clipPath id="SVGID_58_">
			<use xlink:href="#SVGID_57_"  style="overflow:visible;"/>
		</clipPath>
		<path class="st28" d="M99.8,71.6h3.9c3.7,0,5.5,1.2,5.5,3.7c0,2.3-1.8,3.7-4.9,3.7H103v4h-3.3V71.6H99.8z M103.1,76.8h0.8
			c1.1,0,2-0.4,2-1.6s-0.9-1.5-2-1.5h-0.8V76.8z"/>
	</g>
	<g>
		<defs>
			<rect id="SVGID_59_" x="-8" y="-7.7" width="198.3" height="254.4"/>
		</defs>
		<clipPath id="SVGID_60_">
			<use xlink:href="#SVGID_59_"  style="overflow:visible;"/>
		</clipPath>
		<path class="st29" d="M99.8,71.6h3.9c3.7,0,5.5,1.2,5.5,3.7c0,2.3-1.8,3.7-4.9,3.7H103v4h-3.3V71.6H99.8z M103.1,76.8h0.8
			c1.1,0,2-0.4,2-1.6s-0.9-1.5-2-1.5h-0.8V76.8z"/>
	</g>
	<g>
		<defs>
			<rect id="SVGID_61_" x="-8" y="-7.7" width="198.3" height="254.4"/>
		</defs>
		<clipPath id="SVGID_62_">
			<use xlink:href="#SVGID_61_"  style="overflow:visible;"/>
		</clipPath>
		<path class="st30" d="M113.3,71.6h4L122,83h-3.6l-0.9-2.4h-4.6l-1,2.4h-3.3L113.3,71.6z M115.3,73.9L115.3,73.9l-1.6,4.4h3.1
			L115.3,73.9z"/>
	</g>
	<g>
		<defs>
			<rect id="SVGID_63_" x="-8" y="-7.7" width="198.3" height="254.4"/>
		</defs>
		<clipPath id="SVGID_64_">
			<use xlink:href="#SVGID_63_"  style="overflow:visible;"/>
		</clipPath>
		<path class="st31" d="M113.3,71.6h4L122,83h-3.6l-0.9-2.4h-4.6l-1,2.4h-3.3L113.3,71.6z M115.3,73.9L115.3,73.9l-1.6,4.4h3.1
			L115.3,73.9z"/>
	</g>
	<g>
		<defs>
			<rect id="SVGID_65_" x="-8" y="-7.7" width="198.3" height="254.4"/>
		</defs>
		<clipPath id="SVGID_66_">
			<use xlink:href="#SVGID_65_"  style="overflow:visible;"/>
		</clipPath>
		<path class="st32" d="M123.4,71.6h5.8c2.2,0,4,0.9,4,2.9c0,1.5-0.8,2.5-2.4,2.9l0,0c1.1,0.3,1.1,1.1,1.7,2.5l1.2,3.1h-3.4
			l-0.7-2.1c-0.7-2-1.1-2.4-2.3-2.4h-0.7V83h-3.3L123.4,71.6L123.4,71.6z M126.6,76.3h0.9c1.1,0,2.4,0,2.4-1.3
			c0-1.1-1.1-1.3-2.4-1.3h-0.9V76.3z"/>
	</g>
	<g>
		<defs>
			<rect id="SVGID_67_" x="-8" y="-7.7" width="198.3" height="254.4"/>
		</defs>
		<clipPath id="SVGID_68_">
			<use xlink:href="#SVGID_67_"  style="overflow:visible;"/>
		</clipPath>
		<path class="st33" d="M123.4,71.6h5.8c2.2,0,4,0.9,4,2.9c0,1.5-0.8,2.5-2.4,2.9l0,0c1.1,0.3,1.1,1.1,1.7,2.5l1.2,3.1h-3.4
			l-0.7-2.1c-0.7-2-1.1-2.4-2.3-2.4h-0.7V83h-3.3L123.4,71.6L123.4,71.6z M126.6,76.3h0.9c1.1,0,2.4,0,2.4-1.3
			c0-1.1-1.1-1.3-2.4-1.3h-0.9V76.3z"/>
	</g>
	<g>
		<defs>
			<rect id="SVGID_69_" x="-8" y="-7.7" width="198.3" height="254.4"/>
		</defs>
		<clipPath id="SVGID_70_">
			<use xlink:href="#SVGID_69_"  style="overflow:visible;"/>
		</clipPath>
		<polygon class="st34" points="135.3,71.6 138.6,71.6 138.6,76.2 138.6,76.2 142.3,71.6 146.3,71.6 141.7,76.8 146.6,82.9 
			142.5,82.9 138.6,77.8 138.6,77.8 138.6,82.9 135.3,82.9 		"/>
	</g>
	<g>
		<defs>
			<rect id="SVGID_71_" x="-8" y="-7.7" width="198.3" height="254.4"/>
		</defs>
		<clipPath id="SVGID_72_">
			<use xlink:href="#SVGID_71_"  style="overflow:visible;"/>
		</clipPath>
		<polygon class="st35" points="135.3,71.6 138.6,71.6 138.6,76.2 138.6,76.2 142.3,71.6 146.3,71.6 141.7,76.8 146.6,82.9 
			142.5,82.9 138.6,77.8 138.6,77.8 138.6,82.9 135.3,82.9 		"/>
	</g>
	<g>
		<defs>
			<rect id="SVGID_73_" x="-8" y="-7.7" width="198.3" height="254.4"/>
		</defs>
		<clipPath id="SVGID_74_">
			<use xlink:href="#SVGID_73_"  style="overflow:visible;"/>
		</clipPath>
		<path class="st36" d="M86.7,98.4c0.8,0.4,2,0.7,3.3,0.7c1,0,2-0.2,2-1.1c0-2.1-5.7-0.8-5.7-4.9c0-2.7,2.9-3.5,5.3-3.5
			c1.2,0,2.3,0.2,3.1,0.4l-0.2,2.3c-0.8-0.4-1.8-0.5-2.7-0.5c-0.8,0-2.2,0.1-2.2,1.1c0,1.8,5.7,0.6,5.7,4.7c0,2.9-2.6,3.7-5.3,3.7
			c-1.1,0-2.5-0.2-3.6-0.5L86.7,98.4z"/>
	</g>
	<g>
		<defs>
			<rect id="SVGID_75_" x="-8" y="-7.7" width="198.3" height="254.4"/>
		</defs>
		<clipPath id="SVGID_76_">
			<use xlink:href="#SVGID_75_"  style="overflow:visible;"/>
		</clipPath>
		<path class="st37" d="M86.7,98.4c0.8,0.4,2,0.7,3.3,0.7c1,0,2-0.2,2-1.1c0-2.1-5.7-0.8-5.7-4.9c0-2.7,2.9-3.5,5.3-3.5
			c1.2,0,2.3,0.2,3.1,0.4l-0.2,2.3c-0.8-0.4-1.8-0.5-2.7-0.5c-0.8,0-2.2,0.1-2.2,1.1c0,1.8,5.7,0.6,5.7,4.7c0,2.9-2.6,3.7-5.3,3.7
			c-1.1,0-2.5-0.2-3.6-0.5L86.7,98.4z"/>
	</g>
	<g>
		<defs>
			<rect id="SVGID_77_" x="-8" y="-7.7" width="198.3" height="254.4"/>
		</defs>
		<clipPath id="SVGID_78_">
			<use xlink:href="#SVGID_77_"  style="overflow:visible;"/>
		</clipPath>
		<polygon class="st38" points="97.4,89.8 106,89.8 106,91.9 100.6,91.9 100.6,94.3 105.7,94.3 105.7,96.4 100.6,96.4 100.6,99 
			106.1,99 106.1,101.2 97.4,101.2 		"/>
	</g>
	<g>
		<defs>
			<rect id="SVGID_79_" x="-8" y="-7.7" width="198.3" height="254.4"/>
		</defs>
		<clipPath id="SVGID_80_">
			<use xlink:href="#SVGID_79_"  style="overflow:visible;"/>
		</clipPath>
		<polygon class="st39" points="97.4,89.8 106,89.8 106,91.9 100.6,91.9 100.6,94.3 105.7,94.3 105.7,96.4 100.6,96.4 100.6,99 
			106.1,99 106.1,101.2 97.4,101.2 		"/>
	</g>
	<g>
		<defs>
			<rect id="SVGID_81_" x="-8" y="-7.7" width="198.3" height="254.4"/>
		</defs>
		<clipPath id="SVGID_82_">
			<use xlink:href="#SVGID_81_"  style="overflow:visible;"/>
		</clipPath>
		<path class="st40" d="M108.2,89.8h5.8c2.2,0,3.9,0.9,3.9,2.9c0,1.5-0.8,2.5-2.3,2.9l0,0c1,0.3,1.1,1.1,1.7,2.5l1.2,3.1h-3.4
			l-0.7-2c-0.7-2-1.1-2.4-2.3-2.4h-0.7v4.5h-3.2V89.8z M111.4,94.5h0.9c1,0,2.4,0,2.4-1.3c0-1.1-1.1-1.3-2.4-1.3h-0.9V94.5z"/>
	</g>
	<g>
		<defs>
			<rect id="SVGID_83_" x="-8" y="-7.7" width="198.3" height="254.4"/>
		</defs>
		<clipPath id="SVGID_84_">
			<use xlink:href="#SVGID_83_"  style="overflow:visible;"/>
		</clipPath>
		<path class="st41" d="M108.2,89.8h5.8c2.2,0,3.9,0.9,3.9,2.9c0,1.5-0.8,2.5-2.3,2.9l0,0c1,0.3,1.1,1.1,1.7,2.5l1.2,3.1h-3.4
			l-0.7-2c-0.7-2-1.1-2.4-2.3-2.4h-0.7v4.5h-3.2V89.8z M111.4,94.5h0.9c1,0,2.4,0,2.4-1.3c0-1.1-1.1-1.3-2.4-1.3h-0.9V94.5z"/>
	</g>
	<g>
		<defs>
			<rect id="SVGID_85_" x="-8" y="-7.7" width="198.3" height="254.4"/>
		</defs>
		<clipPath id="SVGID_86_">
			<use xlink:href="#SVGID_85_"  style="overflow:visible;"/>
		</clipPath>
		<polygon class="st42" points="119.2,89.8 122.7,89.8 125.4,98.7 125.4,98.7 128.1,89.8 131.4,89.8 127.3,101.2 123.3,101.2 		"/>
	</g>
	<g>
		<defs>
			<rect id="SVGID_87_" x="-8" y="-7.7" width="198.3" height="254.4"/>
		</defs>
		<clipPath id="SVGID_88_">
			<use xlink:href="#SVGID_87_"  style="overflow:visible;"/>
		</clipPath>
		<polygon class="st43" points="119.2,89.8 122.7,89.8 125.4,98.7 125.4,98.7 128.1,89.8 131.4,89.8 127.3,101.2 123.3,101.2 		"/>
	</g>
	<g>
		<defs>
			<rect id="SVGID_89_" x="-8" y="-7.7" width="198.3" height="254.4"/>
		</defs>
		<clipPath id="SVGID_90_">
			<use xlink:href="#SVGID_89_"  style="overflow:visible;"/>
		</clipPath>
		<rect x="133.1" y="89.8" class="st44" width="3.2" height="11.4"/>
	</g>
	<g>
		<defs>
			<rect id="SVGID_91_" x="-8" y="-7.7" width="198.3" height="254.4"/>
		</defs>
		<clipPath id="SVGID_92_">
			<use xlink:href="#SVGID_91_"  style="overflow:visible;"/>
		</clipPath>
		<rect x="133.1" y="89.8" class="st45" width="3.2" height="11.4"/>
	</g>
	<g>
		<defs>
			<rect id="SVGID_93_" x="-8" y="-7.7" width="198.3" height="254.4"/>
		</defs>
		<clipPath id="SVGID_94_">
			<use xlink:href="#SVGID_93_"  style="overflow:visible;"/>
		</clipPath>
		<path class="st46" d="M149,100.9c-0.9,0.2-2,0.5-3.6,0.5c-3.2,0-7-1.5-7-5.8c0-4,3-5.9,7-5.9c1.2,0,2.4,0.3,3.6,0.6l-0.3,2.5
			c-1-0.5-2.1-0.8-3.2-0.8c-2.3,0-3.8,1.6-3.8,3.7c0,2.2,1.7,3.6,4.1,3.6c1.1,0,2.1-0.3,3-0.6L149,100.9z"/>
	</g>
	<g>
		<defs>
			<rect id="SVGID_95_" x="-8" y="-7.7" width="198.3" height="254.4"/>
		</defs>
		<clipPath id="SVGID_96_">
			<use xlink:href="#SVGID_95_"  style="overflow:visible;"/>
		</clipPath>
		<path class="st47" d="M149,100.9c-0.9,0.2-2,0.5-3.6,0.5c-3.2,0-7-1.5-7-5.8c0-4,3-5.9,7-5.9c1.2,0,2.4,0.3,3.6,0.6l-0.3,2.5
			c-1-0.5-2.1-0.8-3.2-0.8c-2.3,0-3.8,1.6-3.8,3.7c0,2.2,1.7,3.6,4.1,3.6c1.1,0,2.1-0.3,3-0.6L149,100.9z"/>
	</g>
	<g>
		<defs>
			<rect id="SVGID_97_" x="-8" y="-7.7" width="198.3" height="254.4"/>
		</defs>
		<clipPath id="SVGID_98_">
			<use xlink:href="#SVGID_97_"  style="overflow:visible;"/>
		</clipPath>
		<polygon class="st48" points="150.6,89.8 159.2,89.8 159.2,91.9 153.8,91.9 153.8,94.3 158.9,94.3 158.9,96.4 153.8,96.4 
			153.8,99 159.4,99 159.4,101.2 150.6,101.2 		"/>
	</g>
	<g>
		<defs>
			<rect id="SVGID_99_" x="-8" y="-7.7" width="198.3" height="254.4"/>
		</defs>
		<clipPath id="SVGID_100_">
			<use xlink:href="#SVGID_99_"  style="overflow:visible;"/>
		</clipPath>
		<polygon class="st49" points="150.6,89.8 159.2,89.8 159.2,91.9 153.8,91.9 153.8,94.3 158.9,94.3 158.9,96.4 153.8,96.4 
			153.8,99 159.4,99 159.4,101.2 150.6,101.2 		"/>
	</g>
</g>
</svg>
